<?xml version="1.0" encoding="utf-8"?>
<!-- Generator: Adobe Illustrator 19.2.1, SVG Export Plug-In . SVG Version: 6.00 Build 0)  -->
<svg version="1.1" id="Layer_1" xmlns="http://www.w3.org/2000/svg" xmlns:xlink="http://www.w3.org/1999/xlink" x="0px" y="0px"
	 viewBox="0 0 699 818.9" style="enable-background:new 0 0 699 818.9;" xml:space="preserve">
<style type="text/css">
	.st0{fill:#00FFD4;stroke:#666666;stroke-width:3;stroke-miterlimit:10;}
	.st1{fill:none;stroke:#666666;stroke-width:3;stroke-miterlimit:10;}
	.st2{fill:#484CFF;stroke:#666666;stroke-width:6;stroke-miterlimit:10;}
	.st3{fill:#00FFD4;stroke:#666666;stroke-width:2;stroke-miterlimit:10;}
	.st4{fill:#666666;}
	.st5{fill:none;stroke:#666666;stroke-width:2;stroke-miterlimit:10;}
	.st6{fill:#484CFF;stroke:#666666;stroke-miterlimit:10;}
	.st7{fill:none;stroke:#666666;stroke-width:3;stroke-miterlimit:10;stroke-dasharray:8.4705,8.4705;}
	.st8{fill:none;stroke:#666666;stroke-width:3;stroke-miterlimit:10;stroke-dasharray:6,6;}
	.st9{enable-background:new    ;}
</style>
<title>back</title>
<rect x="-12" y="-77.1" class="st0" width="734.3" height="944"/>
<g>
	<path class="st1" d="M245.3,680.8h15.4c8.7,0,15.8,7.1,15.8,15.8v41c0,8.7-7.1,15.8-15.8,15.8h-15.4c-8.7,0-15.8-7.1-15.8-15.8v-41
		C229.5,687.9,236.6,680.8,245.3,680.8z"/>
	<circle class="st2" cx="253" cy="688.9" r="1.9"/>
	<line class="st1" x1="229.1" y1="697.1" x2="277.1" y2="697.1"/>
	<path class="st1" d="M252.6,681.6v-10.8c0,0,1.3-5.9-5-5.8c-7.8,0.1-13.4,1.6-12-14.2"/>
</g>
<g>
	<path class="st1" d="M591.2,154.6h28.4c11,0,20,9,20,20.2V249c0,11.1-9,20.2-20,20.2h-28.4c-11,0-20-9-20-20.2v-74.2
		C571.2,163.7,580.2,154.6,591.2,154.6z"/>
	<ellipse class="st0" cx="607" cy="260.6" rx="4.2" ry="4.3"/>
	<path class="st3" d="M587.8,158.9c1-0.5,2.3,0,2.7,1.1c0.5,1.1,0,2.3-1.1,2.8c-1,0.5-2.3,0-2.7-1.1
		C586.3,160.6,586.8,159.3,587.8,158.9z"/>
	<rect x="581.7" y="210.1" class="st0" width="47.3" height="9.9"/>
	<rect x="581.7" y="226.2" class="st0" width="47.3" height="9.9"/>
	<line class="st1" x1="571.1" y1="251.6" x2="640.1" y2="251.6"/>
	<line class="st1" x1="594.1" y1="161.9" x2="629.1" y2="161.9"/>
	<line class="st1" x1="573.1" y1="167.9" x2="638.1" y2="167.9"/>
</g>
<path class="st4" d="M84.9,519.8l2.4,4.8c0.1,0.1,0,0.3-0.1,0.4c0,0-0.1,0-0.1,0h-4.8c-0.2,0-0.3-0.1-0.3-0.3c0,0,0-0.1,0-0.1
	l2.4-4.8c0.1-0.1,0.2-0.2,0.4-0.1C84.9,519.7,84.9,519.7,84.9,519.8z"/>
<polygon class="st0" points="118.4,285.9 71,285.9 62.7,293.5 62.7,285.9 58,285.9 58,242.4 118.4,242.4 "/>
<line class="st1" x1="70" y1="256.4" x2="106" y2="256.4"/>
<line class="st1" x1="70" y1="263.4" x2="106" y2="263.4"/>
<line class="st1" x1="70" y1="270.4" x2="106" y2="270.4"/>
<circle class="st3" cx="642.5" cy="493.6" r="14.9"/>
<circle class="st5" cx="642.5" cy="493.6" r="18.5"/>
<g>
	<circle class="st1" cx="219.2" cy="212.3" r="12"/>
	<line class="st1" x1="227.9" y1="220.3" x2="242.9" y2="232.9"/>
</g>
<path class="st6" d="M634.5,493.7l5.6-2.9v0.8l-4.7,2.4l0,0l4.7,2.4v0.8l-5.6-2.9V493.7L634.5,493.7z"/>
<path class="st6" d="M640.9,497.8l3.4-8.7h0.8l-3.4,8.7H640.9L640.9,497.8z"/>
<path class="st6" d="M651.5,494.4l-5.6,2.9v-0.8l4.8-2.4l0,0l-4.8-2.4v-0.8l5.6,2.9V494.4L651.5,494.4z"/>
<rect x="74.8" y="537.9" class="st0" width="19.7" height="91.4"/>
<rect x="74.8" y="623" class="st1" width="19.7" height="6.3"/>
<polyline class="st1" points="74.8,537.5 84.7,517.6 94.5,537.5 "/>
<line class="st1" x1="88.5" y1="537.9" x2="88.5" y2="623.9"/>
<line class="st1" x1="81.5" y1="537.9" x2="81.5" y2="623.9"/>
<g>
	<polyline class="st1" points="573.8,662.3 573.8,666.3 569.8,666.3 	"/>
	<line class="st7" x1="561.3" y1="666.3" x2="531.7" y2="666.3"/>
	<polyline class="st1" points="527.4,666.3 523.4,666.3 523.4,662.3 	"/>
	<line class="st7" x1="523.4" y1="653.8" x2="523.4" y2="624.2"/>
	<polyline class="st1" points="523.4,619.9 523.4,615.9 527.4,615.9 	"/>
	<line class="st7" x1="535.9" y1="615.9" x2="565.6" y2="615.9"/>
	<polyline class="st1" points="569.8,615.9 573.8,615.9 573.8,619.9 	"/>
	<line class="st7" x1="573.8" y1="628.4" x2="573.8" y2="658"/>
	<rect x="538.9" y="628.6" class="st1" width="50.3" height="50.3"/>
	<path class="st1" d="M520.6,638.7c-3.2,0.3-47.5,0.2-47.5,0.2v19"/>
	<rect x="437.3" y="658.5" class="st0" width="77.9" height="13.7"/>
	<rect x="437.3" y="676.9" class="st0" width="77.9" height="13.7"/>
	<rect x="437.3" y="695.3" class="st0" width="77.9" height="13.7"/>
</g>
<g>
	<circle class="st0" cx="442.6" cy="212.3" r="20.7"/>
	<circle class="st8" cx="442.6" cy="212.3" r="26.8"/>
	<polygon class="st4" points="442.6,222.9 434.4,210.2 436.9,208.6 442,216.4 448.2,200.9 451,202 	"/>
</g>
<g>
	<polyline class="st1" points="287.8,146.9 266,128.4 287.8,111.5 	"/>
	<circle class="st0" cx="287.8" cy="146.9" r="5.3"/>
	<circle class="st0" cx="266" cy="128.4" r="5.3"/>
	<circle class="st0" cx="287.8" cy="111.5" r="5.3"/>
</g>
<g class="st9">
	<path class="st4" d="M256.3,473.6c0.6,0,1.2-0.1,1.7-0.3c0.5-0.2,0.9-0.5,1.2-0.9c0.3-0.4,0.6-0.8,0.8-1.4c0.2-0.5,0.3-1.1,0.3-1.7
		v-9.1h2v9.1c0,0.9-0.1,1.7-0.4,2.4c-0.3,0.7-0.7,1.4-1.2,1.9c-0.5,0.5-1.1,1-1.9,1.3c-0.7,0.3-1.6,0.5-2.5,0.5s-1.8-0.2-2.5-0.5
		c-0.7-0.3-1.4-0.7-1.9-1.3c-0.5-0.5-0.9-1.2-1.2-1.9c-0.3-0.7-0.4-1.5-0.4-2.4v-9.1h2v9.1c0,0.6,0.1,1.2,0.3,1.7
		c0.2,0.5,0.4,1,0.8,1.4s0.8,0.7,1.2,0.9C255.1,473.5,255.7,473.6,256.3,473.6z"/>
	<path class="st4" d="M278.9,475.2h-2c-0.2,0-0.3,0-0.4-0.1c-0.1-0.1-0.2-0.2-0.2-0.3l-4-6.3c-0.1,0.2-0.1,0.3-0.2,0.4l-3.9,5.9
		c-0.1,0.1-0.1,0.2-0.2,0.3c-0.1,0.1-0.2,0.1-0.3,0.1h-1.9l5.2-7.7l-5-7.3h2c0.1,0,0.3,0,0.3,0.1s0.1,0.1,0.2,0.2l3.9,6
		c0-0.1,0.1-0.3,0.2-0.5l3.7-5.5c0.1-0.1,0.1-0.2,0.2-0.2c0.1-0.1,0.2-0.1,0.3-0.1h1.9l-5,7.2L278.9,475.2z"/>
	<path class="st4" d="M290,475.4c-0.1,0.2-0.2,0.4-0.4,0.5c-0.2,0.1-0.4,0.2-0.6,0.2h-0.8l6.3-15.7c0.1-0.2,0.2-0.4,0.4-0.5
		c0.2-0.1,0.4-0.2,0.6-0.2h0.8L290,475.4z"/>
	<path class="st4" d="M313,473.6c0.6,0,1.2-0.1,1.7-0.3c0.5-0.2,0.9-0.5,1.2-0.9c0.3-0.4,0.6-0.8,0.8-1.4c0.2-0.5,0.3-1.1,0.3-1.7
		v-9.1h2v9.1c0,0.9-0.1,1.7-0.4,2.4c-0.3,0.7-0.7,1.4-1.2,1.9c-0.5,0.5-1.1,1-1.9,1.3c-0.7,0.3-1.6,0.5-2.5,0.5s-1.8-0.2-2.5-0.5
		c-0.7-0.3-1.4-0.7-1.9-1.3c-0.5-0.5-0.9-1.2-1.2-1.9c-0.3-0.7-0.4-1.5-0.4-2.4v-9.1h2v9.1c0,0.6,0.1,1.2,0.3,1.7
		c0.2,0.5,0.4,1,0.8,1.4s0.8,0.7,1.2,0.9C311.9,473.5,312.4,473.6,313,473.6z"/>
	<path class="st4" d="M326.2,475.2h-2v-15h2V475.2z"/>
	<path class="st4" d="M351.5,467.7c0,1.1-0.2,2.2-0.5,3.1c-0.4,0.9-0.9,1.7-1.5,2.4s-1.4,1.2-2.3,1.5c-0.9,0.4-1.9,0.5-3,0.5h-5.6
		v-15h5.6c1.1,0,2.1,0.2,3,0.5s1.7,0.9,2.3,1.5s1.2,1.5,1.5,2.4C351.3,465.5,351.5,466.5,351.5,467.7z M349.4,467.7
		c0-0.9-0.1-1.8-0.4-2.5c-0.3-0.7-0.6-1.3-1.1-1.8c-0.5-0.5-1-0.9-1.7-1.2c-0.7-0.3-1.4-0.4-2.2-0.4h-3.6v11.8h3.6
		c0.8,0,1.5-0.1,2.2-0.4c0.7-0.3,1.2-0.6,1.7-1.1c0.5-0.5,0.8-1.1,1.1-1.8C349.2,469.4,349.4,468.6,349.4,467.7z"/>
	<path class="st4" d="M365.2,473.5l0,1.7h-9.3v-15h9.3v1.7h-7.2v5h5.9v1.6h-5.9v5.1H365.2z"/>
	<path class="st4" d="M377.2,462.5c-0.1,0.1-0.1,0.2-0.2,0.2c-0.1,0.1-0.2,0.1-0.3,0.1c-0.1,0-0.3-0.1-0.4-0.2s-0.4-0.3-0.6-0.4
		c-0.2-0.1-0.5-0.3-0.9-0.4c-0.3-0.1-0.8-0.2-1.2-0.2c-0.5,0-0.9,0.1-1.2,0.2c-0.3,0.1-0.6,0.3-0.9,0.5c-0.2,0.2-0.4,0.5-0.5,0.7
		c-0.1,0.3-0.2,0.6-0.2,0.9c0,0.4,0.1,0.8,0.3,1s0.5,0.5,0.8,0.7c0.3,0.2,0.7,0.4,1.2,0.5c0.4,0.1,0.9,0.3,1.3,0.4
		c0.5,0.2,0.9,0.3,1.3,0.5c0.4,0.2,0.8,0.4,1.2,0.7c0.3,0.3,0.6,0.7,0.8,1.1c0.2,0.4,0.3,1,0.3,1.6c0,0.7-0.1,1.3-0.3,1.9
		c-0.2,0.6-0.6,1.1-1,1.5c-0.4,0.4-1,0.8-1.6,1c-0.6,0.2-1.3,0.4-2.1,0.4c-1,0-1.9-0.2-2.7-0.5c-0.8-0.4-1.5-0.8-2-1.4l0.6-1
		c0.1-0.1,0.1-0.1,0.2-0.2c0.1-0.1,0.2-0.1,0.3-0.1c0.1,0,0.2,0,0.3,0.1c0.1,0.1,0.2,0.2,0.4,0.3c0.1,0.1,0.3,0.2,0.5,0.4
		c0.2,0.1,0.4,0.3,0.6,0.4c0.2,0.1,0.5,0.2,0.8,0.3c0.3,0.1,0.7,0.1,1,0.1c0.5,0,0.9-0.1,1.3-0.2c0.4-0.1,0.7-0.3,1-0.6
		c0.3-0.2,0.5-0.5,0.6-0.9c0.1-0.3,0.2-0.7,0.2-1.1c0-0.5-0.1-0.8-0.3-1.1c-0.2-0.3-0.5-0.5-0.8-0.7c-0.3-0.2-0.7-0.4-1.2-0.5
		c-0.4-0.1-0.9-0.3-1.3-0.4c-0.4-0.1-0.9-0.3-1.3-0.5c-0.4-0.2-0.8-0.4-1.2-0.7c-0.3-0.3-0.6-0.7-0.8-1.1c-0.2-0.5-0.3-1-0.3-1.7
		c0-0.5,0.1-1,0.3-1.5c0.2-0.5,0.5-0.9,0.9-1.3c0.4-0.4,0.9-0.7,1.5-0.9c0.6-0.2,1.2-0.3,2-0.3c0.8,0,1.6,0.1,2.3,0.4
		s1.3,0.7,1.8,1.2L377.2,462.5z"/>
	<path class="st4" d="M384.4,475.2h-2v-15h2V475.2z"/>
	<path class="st4" d="M402,468v5.8c-0.8,0.5-1.6,1-2.4,1.2s-1.8,0.4-2.8,0.4c-1.2,0-2.3-0.2-3.3-0.6c-1-0.4-1.8-0.9-2.5-1.6
		s-1.2-1.5-1.6-2.4s-0.6-2-0.6-3.1c0-1.1,0.2-2.2,0.5-3.1c0.4-0.9,0.9-1.8,1.5-2.4c0.7-0.7,1.5-1.2,2.4-1.6s2-0.6,3.2-0.6
		c0.6,0,1.1,0,1.7,0.1c0.5,0.1,1,0.2,1.4,0.4c0.4,0.2,0.8,0.4,1.2,0.6s0.7,0.5,1,0.8l-0.6,0.9c-0.1,0.1-0.2,0.2-0.4,0.3
		s-0.3,0-0.5-0.1c-0.2-0.1-0.4-0.2-0.6-0.4c-0.2-0.1-0.5-0.3-0.8-0.4c-0.3-0.1-0.7-0.2-1.1-0.3c-0.4-0.1-0.9-0.1-1.5-0.1
		c-0.8,0-1.6,0.1-2.3,0.4c-0.7,0.3-1.3,0.7-1.8,1.2c-0.5,0.5-0.9,1.1-1.1,1.9s-0.4,1.6-0.4,2.5c0,0.9,0.1,1.8,0.4,2.5
		c0.3,0.7,0.7,1.4,1.2,1.9c0.5,0.5,1.1,0.9,1.8,1.2c0.7,0.3,1.5,0.4,2.4,0.4c0.7,0,1.3-0.1,1.9-0.2c0.5-0.2,1.1-0.4,1.6-0.7v-3.3
		h-2.3c-0.1,0-0.2,0-0.3-0.1c-0.1-0.1-0.1-0.2-0.1-0.3V468H402z"/>
	<path class="st4" d="M418.8,460.1v15h-1c-0.2,0-0.3,0-0.4-0.1s-0.2-0.2-0.3-0.3l-8.7-11.3c0,0.2,0,0.3,0,0.5s0,0.3,0,0.5v10.7h-1.8
		v-15h1c0.1,0,0.2,0,0.2,0c0.1,0,0.1,0,0.2,0.1c0,0,0.1,0.1,0.1,0.1c0,0,0.1,0.1,0.2,0.2l8.7,11.3c0-0.2,0-0.4,0-0.5
		c0-0.2,0-0.3,0-0.5v-10.7H418.8z"/>
	<path class="st4" d="M433.4,473.5l0,1.7h-9.3v-15h9.3v1.7h-7.2v5h5.9v1.6h-5.9v5.1H433.4z"/>
	<path class="st4" d="M448.8,475.2H447c-0.4,0-0.6-0.1-0.8-0.4l-3.9-5.4c-0.1-0.2-0.2-0.3-0.4-0.4s-0.3-0.1-0.6-0.1h-1.5v6.3h-2v-15
		h4.3c1,0,1.8,0.1,2.5,0.3c0.7,0.2,1.3,0.5,1.7,0.8s0.8,0.8,1,1.3s0.3,1.1,0.3,1.7c0,0.5-0.1,1-0.3,1.5s-0.4,0.9-0.7,1.2
		s-0.7,0.7-1.2,0.9c-0.5,0.3-1,0.5-1.6,0.6c0.3,0.1,0.5,0.4,0.7,0.6L448.8,475.2z M441.9,467.4c0.6,0,1.1-0.1,1.6-0.2
		s0.8-0.3,1.1-0.6s0.5-0.6,0.7-0.9c0.2-0.4,0.2-0.8,0.2-1.2c0-0.9-0.3-1.6-0.9-2s-1.5-0.7-2.6-0.7h-2.2v5.7H441.9z"/>
</g>
<g>
	<g>
		<path class="st4" d="M174.6,409.2c0,2-0.2,3.7-0.7,5.3c-0.5,1.6-1.2,2.9-2.2,4.1c-1,1.1-2.2,2-3.6,2.6c-1.5,0.6-3.2,0.9-5.1,0.9
			c-0.9,0-1.7-0.1-2.6-0.2c-0.9-0.1-1.8-0.3-2.7-0.5c0.1-0.7,0.1-1.4,0.2-2.1s0.1-1.4,0.2-2.1c0-0.4,0.2-0.7,0.5-0.9
			c0.3-0.2,0.6-0.3,1.1-0.3c0.3,0,0.6,0,1,0.1c0.4,0.1,0.9,0.1,1.6,0.1c0.9,0,1.6-0.1,2.3-0.4s1.2-0.6,1.6-1.2
			c0.4-0.5,0.8-1.3,1-2.1c0.2-0.9,0.3-1.9,0.3-3.2v-22.5h7.2V409.2z"/>
		<path class="st4" d="M218.6,404.3c0,2.5-0.4,4.9-1.3,7.1c-0.9,2.2-2.1,4.1-3.6,5.6s-3.4,2.8-5.6,3.7c-2.2,0.9-4.6,1.4-7.3,1.4
			s-5.1-0.5-7.3-1.4c-2.2-0.9-4.1-2.1-5.6-3.7s-2.8-3.5-3.6-5.6c-0.9-2.2-1.3-4.5-1.3-7.1s0.4-4.9,1.3-7.1c0.9-2.2,2.1-4,3.6-5.6
			s3.4-2.8,5.6-3.7c2.2-0.9,4.6-1.4,7.3-1.4s5.1,0.5,7.3,1.4c2.2,0.9,4.1,2.2,5.6,3.7c1.6,1.6,2.8,3.5,3.6,5.6
			C218.1,399.4,218.6,401.8,218.6,404.3z M211.2,404.3c0-1.8-0.2-3.5-0.7-4.9s-1.2-2.7-2.1-3.7c-0.9-1-2-1.8-3.3-2.3
			c-1.3-0.5-2.7-0.8-4.4-0.8c-1.6,0-3.1,0.3-4.4,0.8c-1.3,0.5-2.4,1.3-3.3,2.3c-0.9,1-1.6,2.2-2.1,3.7s-0.7,3.1-0.7,4.9
			c0,1.8,0.2,3.5,0.7,4.9c0.5,1.4,1.2,2.7,2.1,3.7c0.9,1,2,1.8,3.3,2.3c1.3,0.5,2.8,0.8,4.4,0.8c1.6,0,3.1-0.3,4.4-0.8
			c1.3-0.5,2.4-1.3,3.3-2.3c0.9-1,1.6-2.2,2.1-3.7C211,407.8,211.2,406.1,211.2,404.3z"/>
		<path class="st4" d="M256.6,421.7H251c-0.6,0-1.1-0.1-1.5-0.4c-0.4-0.3-0.7-0.7-0.9-1.1l-2.4-6.6h-13.9l-2.4,6.6
			c-0.2,0.4-0.4,0.8-0.8,1.1c-0.4,0.3-0.9,0.5-1.5,0.5h-5.6l13.6-34.8h7.4L256.6,421.7z M244.5,408.5l-3.8-10.7
			c-0.2-0.6-0.5-1.2-0.7-2c-0.2-0.8-0.5-1.6-0.7-2.4c-0.2,0.9-0.5,1.7-0.7,2.5c-0.2,0.8-0.5,1.4-0.7,2l-3.7,10.6H244.5z"/>
		<path class="st4" d="M293.1,386.9v34.8h-3.7c-0.6,0-1-0.1-1.4-0.3c-0.4-0.2-0.8-0.5-1.1-0.9l-17.4-22.1c0,0.6,0.1,1.1,0.1,1.7
			c0,0.5,0,1,0,1.5v20.1h-6.4v-34.8h3.8c0.3,0,0.6,0,0.8,0c0.2,0,0.4,0.1,0.6,0.2c0.2,0.1,0.3,0.2,0.5,0.3c0.2,0.1,0.3,0.3,0.5,0.6
			l17.5,22.2c-0.1-0.6-0.1-1.2-0.1-1.8c0-0.6,0-1.1,0-1.6v-19.9H293.1z"/>
		<path class="st4" d="M333.6,386.9v34.8h-3.7c-0.6,0-1-0.1-1.4-0.3c-0.4-0.2-0.8-0.5-1.1-0.9L310,398.4c0,0.6,0.1,1.1,0.1,1.7
			c0,0.5,0,1,0,1.5v20.1h-6.4v-34.8h3.8c0.3,0,0.6,0,0.8,0c0.2,0,0.4,0.1,0.6,0.2c0.2,0.1,0.3,0.2,0.5,0.3c0.2,0.1,0.3,0.3,0.5,0.6
			l17.5,22.2c-0.1-0.6-0.1-1.2-0.1-1.8c0-0.6,0-1.1,0-1.6v-19.9H333.6z"/>
		<path class="st4" d="M374.8,421.7h-5.6c-0.6,0-1.1-0.1-1.5-0.4c-0.4-0.3-0.7-0.7-0.9-1.1l-2.4-6.6h-13.9l-2.4,6.6
			c-0.2,0.4-0.4,0.8-0.8,1.1c-0.4,0.3-0.9,0.5-1.5,0.5h-5.6l13.6-34.8h7.4L374.8,421.7z M362.7,408.5l-3.8-10.7
			c-0.2-0.6-0.5-1.2-0.7-2s-0.5-1.6-0.7-2.4c-0.2,0.9-0.5,1.7-0.7,2.5s-0.5,1.4-0.7,2l-3.7,10.6H362.7z"/>
		<path class="st4" d="M415.3,415.9v5.9h-20.7v-34.8h7.2v29H415.3z"/>
		<path class="st4" d="M430.3,392.5v9h11.6v5.4h-11.6v9.1h14.9v5.6h-22.2v-34.8h22.2v5.6H430.3z"/>
		<path class="st4" d="M461.2,401.3h1.4c1.2,0,2-0.4,2.6-1.1l8.8-11.8c0.4-0.6,0.9-0.9,1.4-1.2s1.1-0.3,1.8-0.3h6.2l-11.1,14.3
			c-0.7,0.9-1.5,1.6-2.2,2c0.6,0.2,1.1,0.5,1.5,0.9c0.4,0.4,0.9,0.8,1.3,1.4l11.4,16.2h-6.4c-0.4,0-0.8,0-1.1-0.1
			c-0.3-0.1-0.6-0.2-0.8-0.3c-0.2-0.1-0.4-0.3-0.6-0.4c-0.2-0.2-0.3-0.4-0.5-0.6l-9-12.5c-0.3-0.4-0.7-0.7-1.1-0.9
			c-0.4-0.2-1-0.3-1.8-0.3h-2v15.1H454v-34.8h7.2V401.3z"/>
		<path class="st4" d="M498,401.3h1.4c1.2,0,2-0.4,2.6-1.1l8.8-11.8c0.4-0.6,0.9-0.9,1.4-1.2s1.1-0.3,1.8-0.3h6.2l-11.1,14.3
			c-0.7,0.9-1.5,1.6-2.2,2c0.6,0.2,1.1,0.5,1.5,0.9c0.4,0.4,0.9,0.8,1.3,1.4l11.4,16.2h-6.4c-0.4,0-0.8,0-1.1-0.1
			c-0.3-0.1-0.6-0.2-0.8-0.3c-0.2-0.1-0.4-0.3-0.6-0.4c-0.2-0.2-0.3-0.4-0.5-0.6l-9-12.5c-0.3-0.4-0.7-0.7-1.1-0.9
			c-0.4-0.2-1-0.3-1.8-0.3h-2v15.1h-7.2v-34.8h7.2V401.3z"/>
		<path class="st4" d="M534.8,421.7h-7.2v-34.8h7.2V421.7z"/>
	</g>
</g>
</svg>
