<?xml version="1.0" encoding="utf-8"?>
<!-- Generator: Adobe Illustrator 19.2.1, SVG Export Plug-In . SVG Version: 6.00 Build 0)  -->
<svg version="1.1" id="Layer_1" xmlns="http://www.w3.org/2000/svg" xmlns:xlink="http://www.w3.org/1999/xlink" x="0px" y="0px"
	 viewBox="0 0 1200 642.1" style="enable-background:new 0 0 1200 642.1;" xml:space="preserve">
<style type="text/css">
	.st0{fill:#00FFD4;}
	.st1{fill:none;stroke:#666666;stroke-width:3;stroke-miterlimit:10;}
	.st2{fill:#00FFD4;stroke:#666666;stroke-width:3;stroke-miterlimit:10;}
	.st3{fill:#484CFF;stroke:#666666;stroke-miterlimit:10;}
	.st4{fill:#666666;stroke:#666666;stroke-miterlimit:10;}
	.st5{fill:#484CFF;stroke:#666666;stroke-width:6;stroke-miterlimit:10;}
	.st6{fill:none;stroke:#666666;stroke-width:3;stroke-miterlimit:10;stroke-dasharray:8,8;}
	.st7{fill:#666666;stroke:#666666;stroke-width:3;stroke-miterlimit:10;}
	.st8{fill:#00FFD4;stroke:#666666;stroke-width:2;stroke-miterlimit:10;}
	.st9{fill:none;stroke:#666666;stroke-width:2;stroke-miterlimit:10;}
	.st10{fill:none;stroke:#666666;stroke-width:3;stroke-miterlimit:10;stroke-dasharray:7.314,7.314;}
	.st11{fill:none;stroke:#666666;stroke-width:3;stroke-miterlimit:10;stroke-dasharray:6,6;}
	.st12{fill:#666666;}
	.st13{font-family:'Lato-Regular';}
	.st14{font-size:24.1593px;}
	.st15{letter-spacing:1;}
	.st16{font-family:'Lato-Heavy';}
	.st17{font-size:55.2212px;}
	.st18{letter-spacing:3;}
</style>
<title>back</title>
<rect x="-57.6" y="-34.4" class="st0" width="1315.1" height="718.9"/>
<path class="st1" d="M984,99.2h41.5c11,0,20,9,20,20v95.3c0,11-9,20-20,20H984c-11,0-20-9-20-20v-95.3
	C964,108.2,972.9,99.2,984,99.2z"/>
<circle class="st2" cx="1006.6" cy="224.5" r="5.1"/>
<ellipse transform="matrix(0.9139 -0.4059 0.4059 0.9139 41.1213 406.9207)" class="st2" cx="979.8" cy="106.5" rx="2.5" ry="2.5"/>
<rect x="976.5" y="164.8" class="st2" width="56.3" height="11.7"/>
<rect x="976.5" y="183.9" class="st2" width="56.3" height="11.7"/>
<line class="st1" x1="964" y1="214.6" x2="1046" y2="214.6"/>
<line class="st1" x1="992" y1="107.6" x2="1034" y2="107.6"/>
<line class="st1" x1="964" y1="115.6" x2="1046" y2="115.6"/>
<rect x="200.8" y="317" class="st2" width="19.7" height="91.4"/>
<rect x="200.8" y="402" class="st1" width="19.7" height="6.3"/>
<polyline class="st1" points="200.8,316.5 210.7,296.7 220.5,316.5 "/>
<path class="st3" d="M211,297.9l2.4,4.8c0.1,0.1,0,0.3-0.1,0.4c0,0-0.1,0-0.1,0h-4.8c-0.2,0-0.3-0.1-0.3-0.3c0,0,0-0.1,0-0.1
	l2.4-4.8c0.1-0.1,0.2-0.2,0.4-0.1C210.9,297.8,211,297.8,211,297.9z"/>
<path class="st4" d="M428.9,508.4l7.8-7.8c0.3-0.3,0.6,0.1,0.6,0.7v14.1c0,0.6-0.3,1-0.6,0.7L428.9,508.4z"/>
<path class="st4" d="M435.9,508.4l7.8-7.8c0.3-0.3,0.6,0.1,0.6,0.7v14.1c0,0.6-0.3,1-0.6,0.7L435.9,508.4z"/>
<polygon class="st2" points="182.3,222.4 122.4,222.4 111.9,232 111.9,222.4 106,222.4 106,167.4 182.3,167.4 "/>
<line class="st1" x1="121" y1="185.6" x2="167" y2="185.6"/>
<line class="st1" x1="121" y1="193.6" x2="167" y2="193.6"/>
<line class="st1" x1="121" y1="202.6" x2="167" y2="202.6"/>
<path class="st1" d="M126.3,462.4h23.3c11,0,20,9,20,20v57.9c0,11-9,20-20,20h-23.3c-11,0-20-9-20-20v-57.9
	C106.3,471.3,115.3,462.4,126.3,462.4z"/>
<circle class="st5" cx="137.9" cy="473.3" r="2.6"/>
<line class="st1" x1="106" y1="484.6" x2="170" y2="484.6"/>
<path class="st1" d="M137.5,463.1v-14.3c0,0,1.8-7.9-6.8-7.8c-10.5,0.2-18.1,2-16.2-19.3"/>
<circle class="st2" cx="366.2" cy="508" r="35.8"/>
<circle class="st6" cx="366.2" cy="508" r="25.6"/>
<circle class="st1" cx="366.2" cy="508" r="16.3"/>
<circle class="st7" cx="366.2" cy="508" r="6.1"/>
<line class="st1" x1="366.2" y1="508" x2="440.9" y2="507.9"/>
<circle class="st1" cx="268.9" cy="115.8" r="17.9"/>
<circle class="st8" cx="1109.9" cy="357.2" r="14.9"/>
<circle class="st9" cx="1109.9" cy="357.2" r="18.5"/>
<line class="st1" x1="281.8" y1="127.8" x2="304.2" y2="146.4"/>
<path class="st3" d="M1101.9,357.4l5.6-2.9v0.8l-4.7,2.4l0,0l4.7,2.4v0.8l-5.6-2.9V357.4L1101.9,357.4z"/>
<path class="st3" d="M1108.3,361.4l3.4-8.7h0.8l-3.4,8.7H1108.3L1108.3,361.4z"/>
<path class="st3" d="M1118.8,358l-5.6,2.9V360l4.8-2.4l0,0l-4.8-2.4v-0.8l5.6,2.9V358z"/>
<line class="st1" x1="214.5" y1="317.1" x2="214.5" y2="403.1"/>
<line class="st1" x1="207.5" y1="317.1" x2="207.5" y2="403.1"/>
<polyline class="st1" points="982.5,502.9 982.5,506.9 978.5,506.9 "/>
<line class="st10" x1="971.2" y1="506.9" x2="930.9" y2="506.9"/>
<polyline class="st1" points="927.3,506.9 923.3,506.9 923.3,502.9 "/>
<line class="st10" x1="923.3" y1="495.6" x2="923.3" y2="455.3"/>
<polyline class="st1" points="923.3,451.7 923.3,447.7 927.3,447.7 "/>
<line class="st10" x1="934.6" y1="447.7" x2="974.8" y2="447.7"/>
<polyline class="st1" points="978.5,447.7 982.5,447.7 982.5,451.7 "/>
<line class="st10" x1="982.5" y1="459" x2="982.5" y2="499.2"/>
<rect x="941.4" y="462.5" class="st1" width="59.2" height="59.2"/>
<path class="st1" d="M920.3,474.5c-3.8,0.3-55.8,0.2-55.8,0.2v22.4"/>
<rect x="822" y="497.8" class="st2" width="91.6" height="16.1"/>
<rect x="822" y="519.4" class="st2" width="91.6" height="16.1"/>
<rect x="822" y="540.9" class="st2" width="91.6" height="16.1"/>
<circle class="st2" cx="816.1" cy="142.9" r="20.7"/>
<circle class="st11" cx="816.1" cy="142.9" r="26.8"/>
<polyline class="st1" points="810.1,142.1 816.7,152.3 824,134.1 "/>
<polyline class="st1" points="406.9,110.4 385.1,91.9 406.9,75 "/>
<circle class="st2" cx="406.9" cy="110.4" r="5.3"/>
<circle class="st2" cx="385.1" cy="91.9" r="5.3"/>
<circle class="st2" cx="406.9" cy="75" r="5.3"/>
<path class="st7" d="M603.2,580.1c0.5-0.6,4.7-5.1,5.3-5.7s1.2-1.3,2-2l4.5-5c0.5-0.6,1.2-1,2-1.1c0.8-0.1,1.6,0.2,2.2,0.8l3.7,3.4
	L603,590.2l-19.8-19.7l3.7-3.5c0.5-0.6,1.3-0.9,2.2-0.8c0.8,0.2,1.5,0.5,2,1.1l4.5,5c0.7,0.7,1.4,1.4,2,2
	C598.1,575,602.7,579.5,603.2,580.1z"/>
<text transform="matrix(1 0 0 1 496.8064 378.0389)" class="st12 st13 st14 st15">UX / UI DESIGNER</text>
<g>
	<text transform="matrix(1 0 0 1 391.6336 316.5199)" class="st12 st16 st17 st18">JOANNA LEKKI</text>
</g>
</svg>
