<svg xmlns="http://www.w3.org/2000/svg" viewBox="0 0 699 799.12"><title>ui</title><g style="isolation:isolate"><g id="Layer_1" data-name="Layer 1"><rect x="-30.92" y="-0.87" width="752.3" height="799.77" style="fill:#484cff;stroke:#484cff;stroke-miterlimit:10;stroke-width:6px"/><path d="M565.31,232h-29a24.83,24.83,0,0,1-24.8-24.8V129.25a24.83,24.83,0,0,1,24.8-24.8h29a24.83,24.83,0,0,1,24.8,24.8v77.94A24.83,24.83,0,0,1,565.31,232Zm-29-123A20.32,20.32,0,0,0,516,129.25v77.94a20.32,20.32,0,0,0,20.29,20.29h29a20.32,20.32,0,0,0,20.29-20.29V129.25A20.32,20.32,0,0,0,565.31,109h-29Z" style="fill:#000fc9;mix-blend-mode:multiply"/><path d="M552.5,225.69a6.85,6.85,0,1,1,6.85-6.85A6.86,6.86,0,0,1,552.5,225.69Zm0-9.19a2.34,2.34,0,1,0,2.34,2.34A2.35,2.35,0,0,0,552.5,216.5Z" style="fill:#000fc9;mix-blend-mode:multiply"/><path d="M531.29,124.56a4.51,4.51,0,1,1,1.82-.39A4.5,4.5,0,0,1,531.29,124.56Zm0-4.5h0Z" style="fill:#000fc9;mix-blend-mode:multiply"/><path d="M578.6,179.2h-55.7V164h55.7V179.2Zm-51.2-4.51h46.69v-6.14H527.4v6.14Z" style="fill:#000fc9;mix-blend-mode:multiply"/><path d="M578.6,196.52h-55.7V181.36h55.7v15.16ZM527.4,192h46.69v-6.14H527.4V192Z" style="fill:#000fc9;mix-blend-mode:multiply"/><rect x="512" y="207.12" width="78" height="4" style="fill:#000fc9;mix-blend-mode:multiply"/><rect x="539" y="119.12" width="39" height="4" style="fill:#000fc9;mix-blend-mode:multiply"/><rect x="512" y="129.12" width="78" height="4" style="fill:#000fc9;mix-blend-mode:multiply"/><path d="M151.1,533.59a2.73,2.73,0,0,1-1.93-.81l-8.5-8.5,8.5-8.5a2.71,2.71,0,0,1,3-.6,3.14,3.14,0,0,1,1.83,3v12.18a3.14,3.14,0,0,1-1.83,3A2.67,2.67,0,0,1,151.1,533.59Zm-3.37-9.31,1.22,1.22v-2.44Z" style="fill:#000fc9;mix-blend-mode:multiply"/><g style="mix-blend-mode:multiply"><path d="M150.25,524.29l6.73-6.73c0.24-.24.52,0.11,0.52,0.65v12.18c0,0.54-.28.89-0.52,0.65Z" style="fill:#000fc9"/><path d="M157.14,533.59a2.73,2.73,0,0,1-1.93-.81l-8.5-8.5,8.5-8.5a2.71,2.71,0,0,1,3-.6,3.14,3.14,0,0,1,1.83,3v12.18a3.14,3.14,0,0,1-1.83,3A2.68,2.68,0,0,1,157.14,533.59Zm1.6-4.35h0Zm-5-5,1.22,1.22v-2.45Z" style="fill:#000fc9"/></g><path d="M205.23,696.5h-6.79a22,22,0,0,1-22-22V642.13a22,22,0,0,1,22-22h6.79a22,22,0,0,1,22,22V674.5A22,22,0,0,1,205.23,696.5Zm-6.79-72.37a18,18,0,0,0-18,18V674.5a18,18,0,0,0,18,18h6.79a18,18,0,0,0,18-18V642.13a18,18,0,0,0-18-18h-6.79Z" style="fill:#000fc9;mix-blend-mode:multiply"/><path d="M201.83,634.1a3.89,3.89,0,1,1,3.89-3.89A3.89,3.89,0,0,1,201.83,634.1Zm0-4a0.11,0.11,0,0,0-.11.11c0,0.12.22,0.12,0.22,0A0.11,0.11,0,0,0,201.83,630.1Z" style="fill:#000fc9;mix-blend-mode:multiply"/><path d="M617.16,623.47H560V566.3h57.18v57.18Zm-53.18-4h49.18V570.3H564v49.18Z" style="fill:#000fc9;mix-blend-mode:multiply"/><path d="M633.47,636.82H576.29V579.64h57.18v57.18Zm-53.18-4h49.18V583.64H580.29v49.18Z" style="fill:#000fc9;mix-blend-mode:multiply"/><rect x="176" y="638.12" width="51" height="4" style="fill:#000fc9;mix-blend-mode:multiply"/><path d="M202,622.12h-4V611.75l0.11-.32A3.28,3.28,0,0,0,198,609a3,3,0,0,0-2.3-.65l-1.34,0c-4.06.09-7.9,0.18-10.53-2.62-2.39-2.55-3.17-6.91-2.54-14.11l4,0.35c-0.51,5.73,0,9.44,1.47,11,1.34,1.43,3.73,1.45,7.52,1.36l1.37,0c3.24,0,4.83,1.23,5.61,2.32a6.93,6.93,0,0,1,.71,5.74v9.73Z" style="fill:#000fc9;mix-blend-mode:multiply"/><path d="M89.95,557.43a33.52,33.52,0,1,1,33.52-33.52A33.56,33.56,0,0,1,89.95,557.43Zm0-62a28.52,28.52,0,1,0,28.52,28.52A28.56,28.56,0,0,0,89.95,495.39Z" style="fill:#000fc9;mix-blend-mode:multiply"/><path d="M89.95,548.62a24.71,24.71,0,1,1,24.71-24.71A24.74,24.74,0,0,1,89.95,548.62Zm0-44.42a19.71,19.71,0,1,0,19.71,19.71A19.73,19.73,0,0,0,89.95,504.2Z" style="fill:#000fc9;mix-blend-mode:multiply"/><path d="M89.95,540.49a16.58,16.58,0,1,1,16.58-16.58A16.6,16.6,0,0,1,89.95,540.49Zm0-28.16a11.58,11.58,0,1,0,11.58,11.58A11.6,11.6,0,0,0,89.95,512.33Z" style="fill:#000fc9;mix-blend-mode:multiply"/><path d="M89.95,531.72a7.81,7.81,0,1,1,7.81-7.81A7.82,7.82,0,0,1,89.95,531.72Zm0-10.62a2.81,2.81,0,1,0,2.81,2.81A2.81,2.81,0,0,0,89.95,521.1Z" style="fill:#000fc9;mix-blend-mode:multiply"/><rect x="89.95" y="521.39" width="64.65" height="5" style="fill:#000fc9;mix-blend-mode:multiply"/><path d="M178,130.28a22,22,0,1,1,22-22A22,22,0,0,1,178,130.28Zm0-40.46a18.48,18.48,0,1,0,18.48,18.48A18.5,18.5,0,0,0,178,89.82Z" style="fill:#000fc9;mix-blend-mode:multiply"/><path d="M178,135.23a26.93,26.93,0,1,1,26.93-26.93A27,27,0,0,1,178,135.23Zm0-50.36a23.43,23.43,0,1,0,23.43,23.43A23.46,23.46,0,0,0,178,84.87Z" style="fill:#000fc9;mix-blend-mode:multiply"/><path d="M129.33,255.34a16,16,0,1,1,16-16A16,16,0,0,1,129.33,255.34Zm0-28a12,12,0,1,0,12,12A12,12,0,0,0,129.33,227.38Z" style="fill:#000fc9;mix-blend-mode:multiply"/><rect x="146.2" y="244.64" width="4" height="22.78" transform="translate(-143.32 205.74) rotate(-50.15)" style="fill:#000fc9;mix-blend-mode:multiply"/><g style="mix-blend-mode:multiply"><polygon points="175.9 115.23 165.96 110.11 165.96 107.81 175.9 102.69 175.9 106.45 170.89 108.96 175.9 111.47 175.9 115.23" style="fill:#000fc9"/><polygon points="177.69 115.14 174.1 115.14 179.57 100.93 183.18 100.93 177.69 115.14" style="fill:#000fc9"/><polygon points="181.35 115.23 181.35 111.47 186.38 108.96 181.35 106.45 181.35 102.69 191.28 107.79 191.28 110.13 181.35 115.23" style="fill:#000fc9"/></g><path d="M349.43,611.85a17.08,17.08,0,1,1,17.08-17.08A17.1,17.1,0,0,1,349.43,611.85Zm0-31.16a14.08,14.08,0,1,0,14.08,14.08A14.1,14.1,0,0,0,349.43,580.69Z" style="fill:#000fc9;mix-blend-mode:multiply"/><path d="M349.43,616.44a21.67,21.67,0,1,1,21.67-21.67A21.7,21.7,0,0,1,349.43,616.44Zm0-40.35a18.67,18.67,0,1,0,18.67,18.67A18.69,18.69,0,0,0,349.43,576.1Z" style="fill:#000fc9;mix-blend-mode:multiply"/><path d="M509,612.12h-4V590.57h2c14.4,0,52.37,0,55.07-.2l0.35,4c-3.08.27-43.71,0.23-53.42,0.22v17.55Z" style="fill:#000fc9;mix-blend-mode:multiply"/><path d="M555.26,629.76H469V611.3h86.26v18.46Zm-82.26-4h78.26V615.3H473v10.46Z" style="fill:#000fc9;mix-blend-mode:multiply"/><path d="M555.26,646.07H469V627.61h86.26v18.46Zm-82.26-4h78.26V631.61H473v10.46Z" style="fill:#000fc9;mix-blend-mode:multiply"/><path d="M555.26,662.37H469V643.91h86.26v18.46Zm-82.26-4h78.26V647.91H473v10.46Z" style="fill:#000fc9;mix-blend-mode:multiply"/><polygon points="350.34 606.2 343.27 595.23 346.63 593.06 349.5 597.51 353.54 587.38 357.25 588.86 350.34 606.2" style="fill:#000fc9;mix-blend-mode:multiply"/><polygon points="328.92 194.64 309.99 178.64 328.99 163.87 331.44 167.02 316.34 178.77 331.5 191.58 328.92 194.64" style="fill:#000fc9;mix-blend-mode:multiply"/><g style="mix-blend-mode:multiply"><circle cx="330.21" cy="193.11" r="4.17" style="fill:#000fc9"/><path d="M330.21,199.29a6.17,6.17,0,1,1,6.17-6.17A6.18,6.18,0,0,1,330.21,199.29Zm0-8.35a2.17,2.17,0,1,0,2.17,2.17A2.18,2.18,0,0,0,330.21,190.94Z" style="fill:#000fc9"/></g><g style="mix-blend-mode:multiply"><circle cx="313.17" cy="178.71" r="4.17" style="fill:#000fc9"/><path d="M313.17,184.88a6.17,6.17,0,1,1,6.17-6.17A6.18,6.18,0,0,1,313.17,184.88Zm0-8.35a2.17,2.17,0,1,0,2.17,2.17A2.18,2.18,0,0,0,313.17,176.53Z" style="fill:#000fc9"/></g><g style="mix-blend-mode:multiply"><circle cx="330.21" cy="165.44" r="4.17" style="fill:#000fc9"/><path d="M330.21,171.62a6.17,6.17,0,1,1,6.17-6.17A6.18,6.18,0,0,1,330.21,171.62Zm0-8.35a2.17,2.17,0,1,0,2.17,2.17A2.18,2.18,0,0,0,330.21,163.27Z" style="fill:#000fc9"/></g><g style="mix-blend-mode:multiply"><path d="M345.19,772.52l-23.36-23.28,5.58-5.23a4.91,4.91,0,0,1,4.26-1.45,6.34,6.34,0,0,1,3.37,1.77l0.13,0.13,4.4,4.92c0.73,0.71,1.4,1.39,2,2,0.25,0.27,1.3,1.32,2.41,2.44l1.36,1.37,3-3.27,0.49-.53q0.9-1,2-2l4.53-5a6.14,6.14,0,0,1,3.44-1.83A5,5,0,0,1,363,744l5.59,5.2ZM329,749.34l16.17,16.12,16.22-16.14-1.79-1.66-0.18-.15a1.6,1.6,0,0,0-.5.35l-4.53,5q-1,1-1.89,2l-0.49.53c-2.89,3.1-4.48,4.82-4.73,5.11l-1.86,2.2-1.92-2.15c-0.25-.28-2-2-3.1-3.14s-2.27-2.28-2.53-2.57c-0.55-.59-1.18-1.23-1.87-1.9l-0.12-.13-4.38-4.9a1.63,1.63,0,0,0-.53-0.35l-0.16.13Z" style="fill:#000fc9"/></g></g><g id="Layer_2" data-name="Layer 2"><path d="M123.73,388.16a23.54,23.54,0,0,1-.95,6.88,14.54,14.54,0,0,1-2.85,5.32,12.81,12.81,0,0,1-4.79,3.44,17.28,17.28,0,0,1-6.79,1.22,32.43,32.43,0,0,1-3.49-.19,30,30,0,0,1-3.58-.62l0.56-6.11a2,2,0,0,1,.65-1.3,2.3,2.3,0,0,1,1.58-.5,6.28,6.28,0,0,1,1.3.17,8.73,8.73,0,0,0,1.86.17,7.63,7.63,0,0,0,2.65-.42,4.1,4.1,0,0,0,1.88-1.39,6.72,6.72,0,0,0,1.12-2.56,17.37,17.37,0,0,0,.37-3.91v-29h10.48v28.8Z" style="fill:#fff"/><path d="M182.57,381.93a24.27,24.27,0,0,1-1.69,9.11,21.54,21.54,0,0,1-12.15,12.21,27,27,0,0,1-19.21,0A21.56,21.56,0,0,1,137.32,391a25.43,25.43,0,0,1,0-18.23,21.68,21.68,0,0,1,4.77-7.32,22.08,22.08,0,0,1,7.42-4.87,25.27,25.27,0,0,1,9.61-1.77,25,25,0,0,1,9.59,1.78,22.15,22.15,0,0,1,7.39,4.88,21.81,21.81,0,0,1,4.76,7.32A24.2,24.2,0,0,1,182.57,381.93Zm-10.73,0a19.52,19.52,0,0,0-.87-6,12.77,12.77,0,0,0-2.5-4.54,10.77,10.77,0,0,0-4-2.85,13.72,13.72,0,0,0-5.36-1,13.91,13.91,0,0,0-5.41,1,10.74,10.74,0,0,0-4,2.85,12.78,12.78,0,0,0-2.5,4.54,21.51,21.51,0,0,0,0,12.09,12.78,12.78,0,0,0,2.5,4.54,10.59,10.59,0,0,0,4,2.84,14.12,14.12,0,0,0,5.41,1,13.92,13.92,0,0,0,5.36-1,10.61,10.61,0,0,0,4-2.84A12.77,12.77,0,0,0,171,388,19.63,19.63,0,0,0,171.84,381.93Z" style="fill:#fff"/><path d="M233.93,404.53h-8.12a3.55,3.55,0,0,1-2.2-.64,4,4,0,0,1-1.27-1.63l-2.67-7.87H202.5l-2.67,7.87a3.77,3.77,0,0,1-1.22,1.57,3.42,3.42,0,0,1-2.19.7h-8.18l17.48-45.17h10.73Zm-16.65-17.27-4.19-12.37q-0.46-1.18-1-2.77t-1.05-3.46q-0.46,1.89-1,3.5t-1,2.79l-4.15,12.31h12.37Z" style="fill:#fff"/><path d="M283.13,359.36v45.17h-5.46a4.74,4.74,0,0,1-2-.39,5,5,0,0,1-1.63-1.35l-21.3-26.94q0.12,1.21.17,2.34t0,2.12v24.21H243.7V359.36h5.52a9,9,0,0,1,1.15.06,2.93,2.93,0,0,1,.84.23,2.78,2.78,0,0,1,.71.48,8.11,8.11,0,0,1,.78.84l21.48,27.13q-0.16-1.3-.22-2.53t-0.06-2.31v-23.9h9.24Z" style="fill:#fff"/><path d="M337.5,359.36v45.17H332a4.74,4.74,0,0,1-2-.39,5,5,0,0,1-1.63-1.35l-21.3-26.94q0.12,1.21.17,2.34t0,2.12v24.21h-9.24V359.36h5.52a9,9,0,0,1,1.15.06,2.93,2.93,0,0,1,.84.23,2.78,2.78,0,0,1,.71.48,8.12,8.12,0,0,1,.77.84l21.48,27.13q-0.16-1.3-.22-2.53t-0.06-2.31v-23.9h9.24Z" style="fill:#fff"/><path d="M393,404.53h-8.12a3.54,3.54,0,0,1-2.2-.64,4,4,0,0,1-1.27-1.63l-2.67-7.87H361.53l-2.67,7.87a3.77,3.77,0,0,1-1.22,1.57,3.42,3.42,0,0,1-2.19.7h-8.18l17.48-45.17h10.73Zm-16.65-17.27-4.18-12.37q-0.47-1.18-1-2.77t-1.05-3.46q-0.46,1.89-1,3.5t-1,2.79l-4.15,12.31h12.37Z" style="fill:#fff"/><path d="M448.36,396.16v8.37H421.14V359.36h10.48v36.8h16.74Z" style="fill:#fff"/><path d="M470.43,367.42V378h14.2v7.75h-14.2v10.76H489v8.06H459.89V359.36H489v8.06H470.43Z" style="fill:#fff"/><path d="M512.09,377.65h1.67a3.8,3.8,0,0,0,3.35-1.46l10.17-14.76a5,5,0,0,1,1.94-1.63,6.55,6.55,0,0,1,2.59-.45h9.11l-13.39,18.26a9.13,9.13,0,0,1-3.07,2.73,7.54,7.54,0,0,1,2.14,1.21,9.14,9.14,0,0,1,1.8,2l13.64,21h-9.36a8.11,8.11,0,0,1-1.53-.12A3.9,3.9,0,0,1,530,404a3.14,3.14,0,0,1-.81-0.6,5.94,5.94,0,0,1-.65-0.82l-10.23-15.72a3.08,3.08,0,0,0-1.41-1.22,6.12,6.12,0,0,0-2.31-.36h-2.54v19.22H501.62V359.36h10.48v18.29Z" style="fill:#fff"/><path d="M562.1,377.65h1.67a3.8,3.8,0,0,0,3.35-1.46l10.17-14.76a5,5,0,0,1,1.94-1.63,6.55,6.55,0,0,1,2.59-.45h9.11l-13.39,18.26a9.13,9.13,0,0,1-3.07,2.73,7.54,7.54,0,0,1,2.14,1.21,9.14,9.14,0,0,1,1.8,2l13.64,21h-9.36a8.11,8.11,0,0,1-1.53-.12A3.9,3.9,0,0,1,580,404a3.14,3.14,0,0,1-.81-0.6,5.94,5.94,0,0,1-.65-0.82l-10.23-15.72a3.08,3.08,0,0,0-1.41-1.22,6.12,6.12,0,0,0-2.31-.36H562.1v19.22H551.62V359.36H562.1v18.29Z" style="fill:#fff"/><path d="M612.16,404.53H601.62V359.36h10.54v45.17Z" style="fill:#fff"/><path d="M226.09,463a5.43,5.43,0,0,0,2.16-.41,4.5,4.5,0,0,0,1.61-1.14,5.06,5.06,0,0,0,1-1.75,6.88,6.88,0,0,0,.35-2.25V445.3h3v12.16a9.25,9.25,0,0,1-.56,3.26,7.44,7.44,0,0,1-1.61,2.59,7.36,7.36,0,0,1-2.55,1.71,9.54,9.54,0,0,1-6.75,0,7.36,7.36,0,0,1-2.55-1.71,7.44,7.44,0,0,1-1.61-2.59,9.23,9.23,0,0,1-.56-3.26V445.3h3v12.15a7,7,0,0,0,.34,2.25,5,5,0,0,0,1,1.76,4.49,4.49,0,0,0,1.61,1.14A5.43,5.43,0,0,0,226.09,463Z" style="fill:#fff"/><path d="M257.29,465.4h-3a0.75,0.75,0,0,1-.52-0.17,1.49,1.49,0,0,1-.31-0.37l-5.19-8.27a2.8,2.8,0,0,1-.27.6L243,464.86a2.65,2.65,0,0,1-.32.37,0.64,0.64,0,0,1-.46.17h-2.79l6.87-10.34-6.58-9.76h3a0.9,0.9,0,0,1,.48.1,0.82,0.82,0,0,1,.27.29l5.08,7.88a2.79,2.79,0,0,1,.31-0.67l4.76-7.15a1,1,0,0,1,.28-0.34,0.65,0.65,0,0,1,.39-0.11h2.84l-6.62,9.63Z" style="fill:#fff"/><path d="M273.73,465.63a1.5,1.5,0,0,1-.62.79,1.63,1.63,0,0,1-.87.26H271.1l8.34-20.94A1.62,1.62,0,0,1,280,445a1.46,1.46,0,0,1,.86-0.26H282Z" style="fill:#fff"/><path d="M305.93,463a5.44,5.44,0,0,0,2.16-.41,4.49,4.49,0,0,0,1.61-1.14,5.06,5.06,0,0,0,1-1.75,6.86,6.86,0,0,0,.35-2.25V445.3h3v12.16a9.25,9.25,0,0,1-.56,3.26,7.46,7.46,0,0,1-1.61,2.59A7.35,7.35,0,0,1,309.3,465a9.54,9.54,0,0,1-6.75,0,7.36,7.36,0,0,1-2.55-1.71,7.46,7.46,0,0,1-1.61-2.59,9.25,9.25,0,0,1-.56-3.26V445.3h3v12.15a7,7,0,0,0,.34,2.25,4.94,4.94,0,0,0,1,1.76,4.48,4.48,0,0,0,1.61,1.14A5.43,5.43,0,0,0,305.93,463Z" style="fill:#fff"/><path d="M324.53,465.4h-3V445.3h3v20.1Z" style="fill:#fff"/><path d="M359.69,455.35a11.2,11.2,0,0,1-.72,4.1,9,9,0,0,1-5.19,5.22,11,11,0,0,1-4.07.73h-7.56V445.3h7.56a11,11,0,0,1,4.07.73,9,9,0,0,1,5.19,5.23A11.22,11.22,0,0,1,359.69,455.35Zm-3.05,0a9.84,9.84,0,0,0-.49-3.21,6.8,6.8,0,0,0-1.39-2.41,5.92,5.92,0,0,0-2.18-1.5,7.58,7.58,0,0,0-2.86-.52h-4.56V463h4.56a7.56,7.56,0,0,0,2.86-.52,5.92,5.92,0,0,0,2.18-1.5,6.8,6.8,0,0,0,1.39-2.4A9.82,9.82,0,0,0,356.64,455.35Z" style="fill:#fff"/><path d="M378.71,463v2.42H366.24V445.3H378.7v2.42h-9.46v6.37h7.61v2.34h-7.61V463h9.48Z" style="fill:#fff"/><path d="M395.59,448.58a1.15,1.15,0,0,1-.29.35,0.65,0.65,0,0,1-.39.11,1,1,0,0,1-.57-0.23q-0.32-.23-0.81-0.52a6.21,6.21,0,0,0-1.15-.52,5,5,0,0,0-1.61-.23,4.73,4.73,0,0,0-1.55.23,3.27,3.27,0,0,0-1.11.63,2.64,2.64,0,0,0-.68.94,2.92,2.92,0,0,0-.23,1.17,2.13,2.13,0,0,0,.41,1.34,3.55,3.55,0,0,0,1.08.91,8.53,8.53,0,0,0,1.53.66L392,454a17.71,17.71,0,0,1,1.75.69,6.14,6.14,0,0,1,1.53,1,4.54,4.54,0,0,1,1.08,1.46,4.84,4.84,0,0,1,.41,2.11,6.77,6.77,0,0,1-.46,2.49,5.85,5.85,0,0,1-1.32,2,6.16,6.16,0,0,1-2.13,1.37,7.84,7.84,0,0,1-2.88.5,9.25,9.25,0,0,1-3.6-.72,8.68,8.68,0,0,1-1.52-.83,7.52,7.52,0,0,1-1.27-1.08l0.85-1.43a1.14,1.14,0,0,1,.3-0.28,0.72,0.72,0,0,1,.4-0.11,1.15,1.15,0,0,1,.68.31q0.39,0.31,1,.68a7.38,7.38,0,0,0,1.36.68,5.32,5.32,0,0,0,1.92.31,5.18,5.18,0,0,0,1.65-.24,3.41,3.41,0,0,0,1.22-.7,3.06,3.06,0,0,0,.76-1.1,3.72,3.72,0,0,0,.27-1.43,2.4,2.4,0,0,0-.41-1.44,3.32,3.32,0,0,0-1.08-.94,7.89,7.89,0,0,0-1.53-.64l-1.75-.55a17.54,17.54,0,0,1-1.75-.67,5.67,5.67,0,0,1-1.53-1,4.45,4.45,0,0,1-1.08-1.53,5.59,5.59,0,0,1-.41-2.26,5.37,5.37,0,0,1,.42-2.09,5.26,5.26,0,0,1,1.22-1.78,6,6,0,0,1,2-1.25,7.21,7.21,0,0,1,2.69-.47,8.71,8.71,0,0,1,3.11.54,7.23,7.23,0,0,1,2.47,1.55Z" style="fill:#fff"/><path d="M406.22,465.4h-3V445.3h3v20.1Z" style="fill:#fff"/><path d="M430.38,455.62v7.84a11.43,11.43,0,0,1-3.25,1.63,12.53,12.53,0,0,1-3.75.54,12.19,12.19,0,0,1-4.4-.76,9.69,9.69,0,0,1-3.35-2.11,9.27,9.27,0,0,1-2.13-3.25,11.19,11.19,0,0,1-.75-4.16,11.68,11.68,0,0,1,.72-4.18,9.14,9.14,0,0,1,2.06-3.25,9.32,9.32,0,0,1,3.25-2.1,11.68,11.68,0,0,1,4.29-.75,12.87,12.87,0,0,1,2.23.18,10.5,10.5,0,0,1,1.91.52,9.28,9.28,0,0,1,1.63.8,9.67,9.67,0,0,1,1.39,1.06L429.38,449a0.85,0.85,0,0,1-.52.41,0.88,0.88,0,0,1-.7-0.15l-0.8-.49a6.19,6.19,0,0,0-1-.52,9,9,0,0,0-1.42-.41,9.62,9.62,0,0,0-1.92-.17,7.88,7.88,0,0,0-3,.54,6.27,6.27,0,0,0-2.27,1.55,6.9,6.9,0,0,0-1.44,2.43,9.48,9.48,0,0,0-.5,3.18,9.63,9.63,0,0,0,.53,3.31,7,7,0,0,0,1.5,2.48,6.39,6.39,0,0,0,2.37,1.55,8.65,8.65,0,0,0,3.11.53,9.48,9.48,0,0,0,1.25-.08,8.86,8.86,0,0,0,1.11-.22,7.6,7.6,0,0,0,1-.35q0.5-.21,1-0.46V457.9h-3a0.63,0.63,0,0,1-.46-0.17,0.55,0.55,0,0,1-.17-0.42v-1.69h6.3Z" style="fill:#fff"/><path d="M453.65,445.3v20.1h-1.51a1.2,1.2,0,0,1-.58-0.13,1.7,1.7,0,0,1-.47-0.41l-11.35-14.68c0,0.25,0,.5,0,0.74s0,0.47,0,.69V465.4h-2.62V445.3h1.54a1.44,1.44,0,0,1,.59.09,1.3,1.3,0,0,1,.43.41l11.38,14.7c0-.27,0-0.53-0.06-0.79s0-.5,0-0.72V445.3h2.6Z" style="fill:#fff"/><path d="M473.89,463v2.42H461.42V445.3h12.46v2.42h-9.46v6.37H472v2.34h-7.62V463h9.48Z" style="fill:#fff"/><path d="M495.45,465.4h-2.66a1.24,1.24,0,0,1-1.16-.63l-5-7a1.49,1.49,0,0,0-.52-0.5,1.87,1.87,0,0,0-.84-0.15h-1.95v8.24h-3V445.3h5.79a12.4,12.4,0,0,1,3.35.4,6.5,6.5,0,0,1,2.32,1.13,4.51,4.51,0,0,1,1.36,1.77,5.88,5.88,0,0,1,.44,2.32,6,6,0,0,1-.32,2,5.19,5.19,0,0,1-.94,1.66,6,6,0,0,1-1.52,1.27,7.46,7.46,0,0,1-2,.81,3.08,3.08,0,0,1,1,.94ZM486.07,455a6.62,6.62,0,0,0,2-.28,4.12,4.12,0,0,0,1.46-.79,3.26,3.26,0,0,0,.88-1.22,4,4,0,0,0,.29-1.56,3.1,3.1,0,0,0-1.14-2.62,5.54,5.54,0,0,0-3.42-.88h-2.81V455h2.72Z" style="fill:#fff"/></g></g></svg>