<svg xmlns="http://www.w3.org/2000/svg" viewBox="0 0 1200 599.6"><title>ui</title><g style="isolation:isolate"><g id="Layer_1" data-name="Layer 1"><rect x="-0.66" y="-21.32" width="1200" height="642.08" style="fill:#484cff;stroke:#484cff;stroke-miterlimit:10;stroke-width:6px"/><path d="M1009.11,189.07H983.4a22,22,0,0,1-22-22V97.93a22,22,0,0,1,22-22h25.71a22,22,0,0,1,22,22v69.14A22,22,0,0,1,1009.11,189.07ZM983.4,79.93a18,18,0,0,0-18,18v69.14a18,18,0,0,0,18,18h25.71a18,18,0,0,0,18-18V97.93a18,18,0,0,0-18-18H983.4Z" style="fill:#000fc9;mix-blend-mode:multiply"/><path d="M997.75,183.48a6.08,6.08,0,1,1,6.08-6.08A6.08,6.08,0,0,1,997.75,183.48Zm0-8.16a2.08,2.08,0,1,0,2.08,2.08A2.08,2.08,0,0,0,997.75,175.32Z" style="fill:#000fc9;mix-blend-mode:multiply"/><path d="M978.94,93.77a4,4,0,1,1,1.62-.35A4,4,0,0,1,978.94,93.77Zm0-4h0Z" style="fill:#000fc9;mix-blend-mode:multiply"/><path d="M1020.9,142.24H971.49V128.79h49.41v13.45Zm-45.41-4h41.41v-5.45H975.49v5.45Z" style="fill:#000fc9;mix-blend-mode:multiply"/><path d="M1020.9,157.6H971.49V144.16h49.41V157.6Zm-45.41-4h41.41v-5.45H975.49v5.45Z" style="fill:#000fc9;mix-blend-mode:multiply"/><rect x="962" y="166.6" width="69" height="4" style="fill:#000fc9;mix-blend-mode:multiply"/><rect x="986" y="88.6" width="34" height="4" style="fill:#000fc9;mix-blend-mode:multiply"/><rect x="962" y="97.6" width="69" height="4" style="fill:#000fc9;mix-blend-mode:multiply"/><path d="M222.52,382.71H198.84V292.49h23.68v90.21Zm-19.68-4h15.68V296.49H202.84v82.21Z" style="fill:#000fc9;mix-blend-mode:multiply"/><path d="M222.52,382.71H198.84v-10h23.68v10Zm-19.68-4h15.68v-2H202.84v2Z" style="fill:#000fc9;mix-blend-mode:multiply"/><polygon points="218.74 295.01 210.68 279.67 202.61 295.01 199.07 293.15 210.68 271.07 222.28 293.15 218.74 295.01" style="fill:#000fc9;mix-blend-mode:multiply"/><path d="M213.11,283.36h-4.76a2.3,2.3,0,0,1-2-1.1,2.24,2.24,0,0,1-.06-2.22l2.38-4.49a2.29,2.29,0,0,1,4,0l2.38,4.49a2.24,2.24,0,0,1-.06,2.22A2.3,2.3,0,0,1,213.11,283.36Z" style="fill:#000fc9;mix-blend-mode:multiply"/><path d="M443.21,472.45a2.19,2.19,0,0,1-1.55-.65l-6.8-6.8,6.8-6.8a2.17,2.17,0,0,1,2.37-.48,2.51,2.51,0,0,1,1.46,2.41v9.75a2.51,2.51,0,0,1-1.47,2.41A2.13,2.13,0,0,1,443.21,472.45ZM440.51,465l1,1v-2Z" style="fill:#000fc9;mix-blend-mode:multiply"/><g style="mix-blend-mode:multiply"><path d="M442.53,465l5.39-5.39c0.19-.19.42,0.09,0.42,0.52v9.75c0,0.43-.23.71-0.42,0.52Z" style="fill:#000fc9"/><path d="M448,472.45a2.19,2.19,0,0,1-1.55-.65l-6.8-6.8,6.8-6.8a2.17,2.17,0,0,1,2.37-.48,2.51,2.51,0,0,1,1.46,2.41v9.75a2.51,2.51,0,0,1-1.47,2.42A2.14,2.14,0,0,1,448,472.45Zm1.28-3.48h0Zm-4-4,1,1v-2Z" style="fill:#000fc9"/></g><path d="M154.23,541h-6.79a22,22,0,0,1-22-22V486.61a22,22,0,0,1,22-22h6.79a22,22,0,0,1,22,22V519A22,22,0,0,1,154.23,541Zm-6.79-72.37a18,18,0,0,0-18,18V519a18,18,0,0,0,18,18h6.79a18,18,0,0,0,18-18V486.61a18,18,0,0,0-18-18h-6.79Z" style="fill:#000fc9;mix-blend-mode:multiply"/><path d="M150.83,478.58a3.89,3.89,0,1,1,3.89-3.89A3.89,3.89,0,0,1,150.83,478.58Zm0-4a0.11,0.11,0,0,0-.11.11c0,0.12.22,0.12,0.22,0A0.11,0.11,0,0,0,150.83,474.58Z" style="fill:#000fc9;mix-blend-mode:multiply"/><path d="M983.16,486H926V428.78h57.18V486ZM930,482h49.18V432.78H930V482Z" style="fill:#000fc9;mix-blend-mode:multiply"/><path d="M999.47,499.3H942.29V442.12h57.18V499.3Zm-53.18-4h49.18V446.12H946.29V495.3Z" style="fill:#000fc9;mix-blend-mode:multiply"/><path d="M108.61,215.24V205.17H104V158.22h63.67v46.95h-48ZM108,201.17h4.61v5l5.47-5h45.59V162.22H108v38.95Z" style="fill:#000fc9;mix-blend-mode:multiply"/><rect x="125" y="482.6" width="51" height="4" style="fill:#000fc9;mix-blend-mode:multiply"/><rect x="118" y="173.6" width="36" height="4" style="fill:#000fc9;mix-blend-mode:multiply"/><rect x="118" y="179.6" width="36" height="4" style="fill:#000fc9;mix-blend-mode:multiply"/><rect x="118" y="186.6" width="36" height="4" style="fill:#000fc9;mix-blend-mode:multiply"/><path d="M151,466.6h-4V456.24l0.11-.32a3.28,3.28,0,0,0-.07-2.45,3,3,0,0,0-2.3-.65l-1.34,0c-4.06.09-7.9,0.18-10.53-2.62-2.39-2.55-3.17-6.91-2.54-14.11l4,0.35c-0.51,5.73,0,9.44,1.47,11,1.34,1.43,3.73,1.45,7.52,1.36l1.37,0c3.24,0,4.83,1.23,5.61,2.32a6.93,6.93,0,0,1,.71,5.74v9.73Z" style="fill:#000fc9;mix-blend-mode:multiply"/><path d="M394.26,491.54a26.83,26.83,0,1,1,26.83-26.83A26.86,26.86,0,0,1,394.26,491.54Zm0-49.66a22.83,22.83,0,1,0,22.83,22.83A22.86,22.86,0,0,0,394.26,441.87Z" style="fill:#000fc9;mix-blend-mode:multiply"/><path d="M394.26,484.49A19.78,19.78,0,1,1,414,464.71,19.8,19.8,0,0,1,394.26,484.49Zm0-35.56A15.78,15.78,0,1,0,410,464.71,15.8,15.8,0,0,0,394.26,448.93Z" style="fill:#000fc9;mix-blend-mode:multiply"/><path d="M394.26,478a13.27,13.27,0,1,1,13.27-13.27A13.29,13.29,0,0,1,394.26,478Zm0-22.54a9.27,9.27,0,1,0,9.27,9.27A9.28,9.28,0,0,0,394.26,455.43Z" style="fill:#000fc9;mix-blend-mode:multiply"/><path d="M394.26,471a6.25,6.25,0,1,1,6.25-6.25A6.26,6.26,0,0,1,394.26,471Zm0-8.5a2.25,2.25,0,1,0,2.25,2.25A2.25,2.25,0,0,0,394.26,462.46Z" style="fill:#000fc9;mix-blend-mode:multiply"/><rect x="394.26" y="462.68" width="51.75" height="4" style="fill:#000fc9;mix-blend-mode:multiply"/><path d="M277.33,167.82a16,16,0,1,1,16-16A16,16,0,0,1,277.33,167.82Zm0-28a12,12,0,1,0,12,12A12,12,0,0,0,277.33,139.86Z" style="fill:#000fc9;mix-blend-mode:multiply"/><path d="M1082.93,348a18.84,18.84,0,1,1,18.84-18.84A18.86,18.86,0,0,1,1082.93,348Zm0-34.68a15.84,15.84,0,1,0,15.84,15.84A15.86,15.86,0,0,0,1082.93,313.35Z" style="fill:#000fc9;mix-blend-mode:multiply"/><path d="M1082.93,352.27A23.08,23.08,0,1,1,1106,329.19,23.11,23.11,0,0,1,1082.93,352.27Zm0-43.17A20.08,20.08,0,1,0,1103,329.19,20.1,20.1,0,0,0,1082.93,309.1Z" style="fill:#000fc9;mix-blend-mode:multiply"/><rect x="294.2" y="157.12" width="4" height="22.78" transform="translate(-22.97 287.92) rotate(-50.15)" style="fill:#000fc9;mix-blend-mode:multiply"/><g style="mix-blend-mode:multiply"><polygon points="1081.14 335.13 1072.62 330.75 1072.62 328.77 1081.14 324.38 1081.14 327.61 1076.85 329.76 1081.14 331.91 1081.14 335.13" style="fill:#000fc9"/><polygon points="1082.68 335.05 1079.6 335.05 1084.28 322.87 1087.38 322.87 1082.68 335.05" style="fill:#000fc9"/><polygon points="1085.81 335.13 1085.81 331.9 1090.13 329.76 1085.81 327.61 1085.81 324.38 1094.33 328.75 1094.33 330.76 1085.81 335.13" style="fill:#000fc9"/></g><path d="M772.43,136.33a17.08,17.08,0,1,1,17.08-17.08A17.1,17.1,0,0,1,772.43,136.33Zm0-31.16a14.08,14.08,0,1,0,14.08,14.08A14.1,14.1,0,0,0,772.43,105.17Z" style="fill:#000fc9;mix-blend-mode:multiply"/><path d="M772.43,140.92a21.67,21.67,0,1,1,21.67-21.67A21.7,21.7,0,0,1,772.43,140.92Zm0-40.35a18.67,18.67,0,1,0,18.67,18.67A18.69,18.69,0,0,0,772.43,100.58Z" style="fill:#000fc9;mix-blend-mode:multiply"/><rect x="212" y="292.6" width="4" height="84" style="fill:#000fc9;mix-blend-mode:multiply"/><rect x="205" y="292.6" width="4" height="84" style="fill:#000fc9;mix-blend-mode:multiply"/><path d="M875,474.6h-4V453h2c14.4,0,52.37,0,55.07-.2l0.35,4c-3.08.27-43.71,0.23-53.42,0.22V474.6Z" style="fill:#000fc9;mix-blend-mode:multiply"/><path d="M921.26,492.25H835V473.78h86.26v18.46Zm-82.26-4h78.26V477.78H839v10.46Z" style="fill:#000fc9;mix-blend-mode:multiply"/><path d="M921.26,508.55H835V490.09h86.26v18.46Zm-82.26-4h78.26V494.09H839v10.46Z" style="fill:#000fc9;mix-blend-mode:multiply"/><path d="M921.26,524.85H835V506.39h86.26v18.46Zm-82.26-4h78.26V510.39H839v10.46Z" style="fill:#000fc9;mix-blend-mode:multiply"/><polygon points="773.34 130.68 766.27 119.71 769.63 117.54 772.5 121.99 776.54 111.86 780.25 113.34 773.34 130.68" style="fill:#000fc9;mix-blend-mode:multiply"/><polygon points="427.92 95.12 408.99 79.12 427.99 64.34 430.44 67.5 415.34 79.25 430.5 92.06 427.92 95.12" style="fill:#000fc9;mix-blend-mode:multiply"/><g style="mix-blend-mode:multiply"><circle cx="429.21" cy="93.59" r="4.17" style="fill:#000fc9"/><path d="M429.21,99.77a6.17,6.17,0,1,1,6.17-6.17A6.18,6.18,0,0,1,429.21,99.77Zm0-8.35a2.17,2.17,0,1,0,2.17,2.17A2.18,2.18,0,0,0,429.21,91.42Z" style="fill:#000fc9"/></g><g style="mix-blend-mode:multiply"><circle cx="412.17" cy="79.19" r="4.17" style="fill:#000fc9"/><path d="M412.17,85.36a6.17,6.17,0,1,1,6.17-6.17A6.18,6.18,0,0,1,412.17,85.36Zm0-8.35a2.17,2.17,0,1,0,2.17,2.17A2.18,2.18,0,0,0,412.17,77Z" style="fill:#000fc9"/></g><g style="mix-blend-mode:multiply"><circle cx="429.21" cy="65.92" r="4.17" style="fill:#000fc9"/><path d="M429.21,72.1a6.17,6.17,0,1,1,6.17-6.17A6.18,6.18,0,0,1,429.21,72.1Zm0-8.35a2.17,2.17,0,1,0,2.17,2.17A2.18,2.18,0,0,0,429.21,63.75Z" style="fill:#000fc9"/></g><g style="mix-blend-mode:multiply"><path d="M600,566.52L576.6,543.24l5.58-5.23a4.91,4.91,0,0,1,4.26-1.45,6.34,6.34,0,0,1,3.37,1.77l0.13,0.13,4.4,4.92c0.73,0.71,1.4,1.39,2,2,0.25,0.27,1.3,1.32,2.41,2.44l1.36,1.37,3-3.27,0.49-.53q0.9-1,2-2l4.53-5a6.14,6.14,0,0,1,3.44-1.83,5,5,0,0,1,4.23,1.47l5.59,5.2ZM583.8,543.35L600,559.46l16.22-16.14-1.79-1.66-0.18-.15a1.6,1.6,0,0,0-.5.35l-4.53,5q-1,1-1.89,2l-0.49.53c-2.89,3.1-4.48,4.82-4.73,5.11l-1.86,2.2-1.92-2.15c-0.25-.28-2-2-3.1-3.14s-2.27-2.28-2.53-2.57c-0.55-.59-1.18-1.23-1.87-1.9l-0.12-.13-4.38-4.9a1.63,1.63,0,0,0-.53-0.35l-0.16.13Z" style="fill:#000fc9"/></g></g><g id="Layer_2" data-name="Layer 2"><path d="M363.82,278.84a23.54,23.54,0,0,1-.95,6.88A14.54,14.54,0,0,1,360,291a12.81,12.81,0,0,1-4.79,3.44,17.28,17.28,0,0,1-6.79,1.22,32.43,32.43,0,0,1-3.49-.19,30,30,0,0,1-3.58-.62l0.56-6.11a2,2,0,0,1,.65-1.3,2.3,2.3,0,0,1,1.58-.5,6.28,6.28,0,0,1,1.3.17,8.73,8.73,0,0,0,1.86.17,7.63,7.63,0,0,0,2.65-.42,4.1,4.1,0,0,0,1.88-1.39A6.72,6.72,0,0,0,353,283a17.37,17.37,0,0,0,.37-3.91V250h10.48v28.8Z" style="fill:#fff"/><path d="M422.66,272.61a24.27,24.27,0,0,1-1.69,9.11,21.54,21.54,0,0,1-12.15,12.21,27,27,0,0,1-19.21,0,21.56,21.56,0,0,1-12.2-12.21,25.43,25.43,0,0,1,0-18.23,21.68,21.68,0,0,1,4.77-7.32,22.08,22.08,0,0,1,7.42-4.87,25.27,25.27,0,0,1,9.61-1.77,25,25,0,0,1,9.59,1.78,22.15,22.15,0,0,1,7.39,4.88,21.81,21.81,0,0,1,4.76,7.32A24.2,24.2,0,0,1,422.66,272.61Zm-10.73,0a19.52,19.52,0,0,0-.87-6,12.77,12.77,0,0,0-2.5-4.54,10.77,10.77,0,0,0-4-2.85,13.72,13.72,0,0,0-5.36-1,13.91,13.91,0,0,0-5.41,1,10.74,10.74,0,0,0-4,2.85,12.78,12.78,0,0,0-2.5,4.54,21.51,21.51,0,0,0,0,12.09,12.78,12.78,0,0,0,2.5,4.54,10.59,10.59,0,0,0,4,2.84,14.12,14.12,0,0,0,5.41,1,13.92,13.92,0,0,0,5.36-1,10.61,10.61,0,0,0,4-2.84,12.77,12.77,0,0,0,2.5-4.54A19.63,19.63,0,0,0,411.94,272.61Z" style="fill:#fff"/><path d="M474,295.2h-8.12a3.55,3.55,0,0,1-2.2-.64,4,4,0,0,1-1.27-1.63l-2.67-7.87H442.6l-2.67,7.87a3.77,3.77,0,0,1-1.22,1.57,3.42,3.42,0,0,1-2.19.7h-8.18L445.82,250h10.73Zm-16.65-17.27-4.19-12.37q-0.46-1.18-1-2.77t-1.05-3.46q-0.46,1.89-1,3.5t-1,2.79L445,277.94h12.37Z" style="fill:#fff"/><path d="M523.23,250V295.2h-5.46a4.74,4.74,0,0,1-2-.39,5,5,0,0,1-1.63-1.35l-21.3-26.94q0.12,1.21.17,2.34t0,2.12V295.2h-9.24V250h5.52a9,9,0,0,1,1.15.06,2.93,2.93,0,0,1,.84.23,2.78,2.78,0,0,1,.71.48,8.11,8.11,0,0,1,.78.84l21.48,27.13q-0.16-1.3-.22-2.53T514,273.94V250h9.24Z" style="fill:#fff"/><path d="M577.6,250V295.2h-5.46a4.74,4.74,0,0,1-2-.39,5,5,0,0,1-1.63-1.35l-21.3-26.94q0.12,1.21.17,2.34t0,2.12V295.2h-9.24V250h5.52a9,9,0,0,1,1.15.06,2.93,2.93,0,0,1,.84.23,2.78,2.78,0,0,1,.71.48,8.12,8.12,0,0,1,.77.84l21.48,27.13q-0.16-1.3-.22-2.53t-0.06-2.31V250h9.24Z" style="fill:#fff"/><path d="M633.06,295.2h-8.12a3.54,3.54,0,0,1-2.2-.64,4,4,0,0,1-1.27-1.63l-2.67-7.87H601.62L599,292.94a3.77,3.77,0,0,1-1.22,1.57,3.42,3.42,0,0,1-2.19.7h-8.18L604.85,250h10.73Zm-16.65-17.27-4.18-12.37q-0.47-1.18-1-2.77t-1.05-3.46q-0.46,1.89-1,3.5t-1,2.79L604,277.94h12.37Z" style="fill:#fff"/><path d="M688.45,286.83v8.37H661.24V250h10.48v36.8h16.74Z" style="fill:#fff"/><path d="M710.53,258.1v10.54h14.2v7.75h-14.2v10.76h18.54v8.06H700V250h29.08v8.06H710.53Z" style="fill:#fff"/><path d="M752.19,268.33h1.67a3.8,3.8,0,0,0,3.35-1.46l10.17-14.76a5,5,0,0,1,1.94-1.63,6.55,6.55,0,0,1,2.59-.45H781L767.63,268.3a9.13,9.13,0,0,1-3.07,2.73,7.54,7.54,0,0,1,2.14,1.21,9.14,9.14,0,0,1,1.8,2l13.64,21h-9.36a8.11,8.11,0,0,1-1.53-.12,3.9,3.9,0,0,1-1.1-.37,3.14,3.14,0,0,1-.81-0.6,5.94,5.94,0,0,1-.65-0.82l-10.23-15.72a3.08,3.08,0,0,0-1.41-1.22,6.12,6.12,0,0,0-2.31-.36h-2.54V295.2H741.71V250h10.48v18.29Z" style="fill:#fff"/><path d="M802.19,268.33h1.67a3.8,3.8,0,0,0,3.35-1.46l10.17-14.76a5,5,0,0,1,1.94-1.63,6.55,6.55,0,0,1,2.59-.45H831L817.63,268.3a9.13,9.13,0,0,1-3.07,2.73,7.54,7.54,0,0,1,2.14,1.21,9.14,9.14,0,0,1,1.8,2l13.64,21h-9.36a8.11,8.11,0,0,1-1.53-.12,3.9,3.9,0,0,1-1.1-.37,3.14,3.14,0,0,1-.81-0.6,5.94,5.94,0,0,1-.65-0.82l-10.23-15.72a3.08,3.08,0,0,0-1.41-1.22,6.12,6.12,0,0,0-2.31-.36h-2.54V295.2H791.71V250h10.48v18.29Z" style="fill:#fff"/><path d="M852.26,295.2H841.72V250h10.54V295.2Z" style="fill:#fff"/><path d="M469,353.69a5.43,5.43,0,0,0,2.16-.41,4.5,4.5,0,0,0,1.61-1.14,5.06,5.06,0,0,0,1-1.75,6.88,6.88,0,0,0,.35-2.25V336h3v12.16a9.25,9.25,0,0,1-.56,3.26,7.44,7.44,0,0,1-1.61,2.59,7.36,7.36,0,0,1-2.55,1.71,9.54,9.54,0,0,1-6.75,0,7.36,7.36,0,0,1-2.55-1.71,7.44,7.44,0,0,1-1.61-2.59,9.23,9.23,0,0,1-.56-3.26V336h3v12.15a7,7,0,0,0,.34,2.25,5,5,0,0,0,1,1.76,4.49,4.49,0,0,0,1.61,1.14A5.43,5.43,0,0,0,469,353.69Z" style="fill:#fff"/><path d="M500.23,356.08h-3a0.75,0.75,0,0,1-.52-0.17,1.49,1.49,0,0,1-.31-0.37l-5.19-8.27a2.8,2.8,0,0,1-.27.6l-5.05,7.67a2.65,2.65,0,0,1-.32.37,0.64,0.64,0,0,1-.46.17h-2.79l6.87-10.34L482.66,336h3a0.9,0.9,0,0,1,.48.1,0.82,0.82,0,0,1,.27.29l5.08,7.88a2.79,2.79,0,0,1,.31-0.67l4.76-7.15a1,1,0,0,1,.28-0.34,0.65,0.65,0,0,1,.39-0.11H500l-6.62,9.63Z" style="fill:#fff"/><path d="M516.67,356.3a1.5,1.5,0,0,1-.62.79,1.63,1.63,0,0,1-.87.26H514l8.34-20.94a1.62,1.62,0,0,1,.57-0.74,1.46,1.46,0,0,1,.86-0.26H525Z" style="fill:#fff"/><path d="M548.87,353.69a5.44,5.44,0,0,0,2.16-.41,4.49,4.49,0,0,0,1.61-1.14,5.06,5.06,0,0,0,1-1.75,6.86,6.86,0,0,0,.35-2.25V336h3v12.16a9.25,9.25,0,0,1-.56,3.26,7.46,7.46,0,0,1-1.61,2.59,7.35,7.35,0,0,1-2.55,1.71,9.54,9.54,0,0,1-6.75,0,7.36,7.36,0,0,1-2.55-1.71,7.46,7.46,0,0,1-1.61-2.59,9.25,9.25,0,0,1-.56-3.26V336h3v12.15a7,7,0,0,0,.34,2.25,4.94,4.94,0,0,0,1,1.76,4.48,4.48,0,0,0,1.61,1.14A5.43,5.43,0,0,0,548.87,353.69Z" style="fill:#fff"/><path d="M567.47,356.08h-3V336h3v20.1Z" style="fill:#fff"/><path d="M602.63,346a11.2,11.2,0,0,1-.72,4.1,9,9,0,0,1-5.19,5.22,11,11,0,0,1-4.07.73h-7.56V336h7.56a11,11,0,0,1,4.07.73,9,9,0,0,1,5.19,5.23A11.22,11.22,0,0,1,602.63,346Zm-3.05,0a9.84,9.84,0,0,0-.49-3.21,6.8,6.8,0,0,0-1.39-2.41,5.92,5.92,0,0,0-2.18-1.5,7.58,7.58,0,0,0-2.86-.52h-4.56v15.29h4.56a7.56,7.56,0,0,0,2.86-.52,5.92,5.92,0,0,0,2.18-1.5,6.8,6.8,0,0,0,1.39-2.4A9.82,9.82,0,0,0,599.58,346Z" style="fill:#fff"/><path d="M621.65,353.66v2.42H609.18V336h12.46v2.42h-9.46v6.37h7.61v2.34h-7.61v6.55h9.48Z" style="fill:#fff"/><path d="M638.53,339.26a1.15,1.15,0,0,1-.29.35,0.65,0.65,0,0,1-.39.11,1,1,0,0,1-.57-0.23q-0.32-.23-0.81-0.52a6.21,6.21,0,0,0-1.15-.52,5,5,0,0,0-1.61-.23,4.73,4.73,0,0,0-1.55.23,3.27,3.27,0,0,0-1.11.63,2.64,2.64,0,0,0-.68.94,2.92,2.92,0,0,0-.23,1.17,2.13,2.13,0,0,0,.41,1.34,3.55,3.55,0,0,0,1.08.91,8.53,8.53,0,0,0,1.53.66l1.75,0.58a17.71,17.71,0,0,1,1.75.69,6.14,6.14,0,0,1,1.53,1,4.54,4.54,0,0,1,1.08,1.46,4.84,4.84,0,0,1,.41,2.11,6.77,6.77,0,0,1-.46,2.49,5.85,5.85,0,0,1-1.32,2,6.16,6.16,0,0,1-2.13,1.37,7.84,7.84,0,0,1-2.88.5,9.25,9.25,0,0,1-3.6-.72,8.68,8.68,0,0,1-1.52-.83,7.52,7.52,0,0,1-1.27-1.08l0.85-1.43a1.14,1.14,0,0,1,.3-0.28,0.72,0.72,0,0,1,.4-0.11,1.15,1.15,0,0,1,.68.31q0.39,0.31,1,.68a7.38,7.38,0,0,0,1.36.68,5.32,5.32,0,0,0,1.92.31,5.18,5.18,0,0,0,1.65-.24,3.41,3.41,0,0,0,1.22-.7,3.06,3.06,0,0,0,.76-1.1,3.72,3.72,0,0,0,.27-1.43,2.4,2.4,0,0,0-.41-1.44,3.32,3.32,0,0,0-1.08-.94,7.89,7.89,0,0,0-1.53-.64l-1.75-.55a17.54,17.54,0,0,1-1.75-.67,5.67,5.67,0,0,1-1.53-1,4.45,4.45,0,0,1-1.08-1.53,5.59,5.59,0,0,1-.41-2.26,5.37,5.37,0,0,1,.42-2.09,5.26,5.26,0,0,1,1.22-1.78,6,6,0,0,1,2-1.25,7.21,7.21,0,0,1,2.69-.47,8.71,8.71,0,0,1,3.11.54,7.23,7.23,0,0,1,2.47,1.55Z" style="fill:#fff"/><path d="M649.16,356.08h-3V336h3v20.1Z" style="fill:#fff"/><path d="M673.32,346.3v7.84a11.43,11.43,0,0,1-3.25,1.63,12.53,12.53,0,0,1-3.75.54,12.19,12.19,0,0,1-4.4-.76,9.69,9.69,0,0,1-3.35-2.11,9.27,9.27,0,0,1-2.13-3.25,11.19,11.19,0,0,1-.75-4.16,11.68,11.68,0,0,1,.72-4.18,9.14,9.14,0,0,1,2.06-3.25,9.32,9.32,0,0,1,3.25-2.1,11.68,11.68,0,0,1,4.29-.75,12.87,12.87,0,0,1,2.23.18,10.5,10.5,0,0,1,1.91.52,9.28,9.28,0,0,1,1.63.8,9.67,9.67,0,0,1,1.39,1.06l-0.85,1.34a0.85,0.85,0,0,1-.52.41,0.88,0.88,0,0,1-.7-0.15l-0.8-.49a6.19,6.19,0,0,0-1-.52,9,9,0,0,0-1.42-.41,9.62,9.62,0,0,0-1.92-.17,7.88,7.88,0,0,0-3,.54,6.27,6.27,0,0,0-2.27,1.55,6.9,6.9,0,0,0-1.44,2.43,9.48,9.48,0,0,0-.5,3.18,9.63,9.63,0,0,0,.53,3.31,7,7,0,0,0,1.5,2.48,6.39,6.39,0,0,0,2.37,1.55,8.65,8.65,0,0,0,3.11.53,9.48,9.48,0,0,0,1.25-.08,8.86,8.86,0,0,0,1.11-.22,7.6,7.6,0,0,0,1-.35q0.5-.21,1-0.46v-4.21h-3a0.63,0.63,0,0,1-.46-0.17A0.55,0.55,0,0,1,667,348V346.3h6.3Z" style="fill:#fff"/><path d="M696.59,336v20.1h-1.51a1.2,1.2,0,0,1-.58-0.13,1.7,1.7,0,0,1-.47-0.41l-11.35-14.68c0,0.25,0,.5,0,0.74s0,0.47,0,.69v13.79h-2.62V336h1.54a1.44,1.44,0,0,1,.59.09,1.3,1.3,0,0,1,.43.41l11.38,14.7c0-.27,0-0.53-0.06-0.79s0-.5,0-0.72V336h2.6Z" style="fill:#fff"/><path d="M716.83,353.66v2.42H704.36V336h12.46v2.42h-9.46v6.37H715v2.34h-7.62v6.55h9.48Z" style="fill:#fff"/><path d="M738.39,356.08h-2.66a1.24,1.24,0,0,1-1.16-.63l-5-7a1.49,1.49,0,0,0-.52-0.5,1.87,1.87,0,0,0-.84-0.15H726.3v8.24h-3V336h5.79a12.4,12.4,0,0,1,3.35.4,6.5,6.5,0,0,1,2.32,1.13,4.51,4.51,0,0,1,1.36,1.77,5.88,5.88,0,0,1,.44,2.32,6,6,0,0,1-.32,2,5.19,5.19,0,0,1-.94,1.66,6,6,0,0,1-1.52,1.27,7.46,7.46,0,0,1-2,.81,3.08,3.08,0,0,1,1,.94ZM729,345.67a6.62,6.62,0,0,0,2-.28,4.12,4.12,0,0,0,1.46-.79,3.26,3.26,0,0,0,.88-1.22,4,4,0,0,0,.29-1.56,3.1,3.1,0,0,0-1.14-2.62,5.54,5.54,0,0,0-3.42-.88H726.3v7.35H729Z" style="fill:#fff"/></g></g></svg>