<?xml version="1.0" encoding="utf-8"?>
<!-- Generator: Adobe Illustrator 19.2.1, SVG Export Plug-In . SVG Version: 6.00 Build 0)  -->
<svg version="1.1" id="Layer_1" xmlns="http://www.w3.org/2000/svg" xmlns:xlink="http://www.w3.org/1999/xlink" x="0px" y="0px"
	 viewBox="0 0 699 699.1" style="enable-background:new 0 0 699 699.1;" xml:space="preserve">
<style type="text/css">
	.st0{fill:#00FFD4;stroke:#666666;stroke-width:3;stroke-miterlimit:10;}
	.st1{fill:none;stroke:#666666;stroke-width:3;stroke-miterlimit:10;}
	.st2{fill:#484CFF;stroke:#666666;stroke-width:6;stroke-miterlimit:10;}
	.st3{fill:#00FFD4;stroke:#666666;stroke-width:2;stroke-miterlimit:10;}
	.st4{fill:#666666;}
	.st5{fill:none;stroke:#666666;stroke-width:2;stroke-miterlimit:10;}
	.st6{fill:#484CFF;stroke:#666666;stroke-miterlimit:10;}
	.st7{fill:none;stroke:#666666;stroke-width:3;stroke-miterlimit:10;stroke-dasharray:6,6;}
	.st8{fill:none;stroke:#666666;stroke-width:3;stroke-miterlimit:10;stroke-dasharray:8.4705,8.4705;}
	.st9{font-family:'Lato-Regular';}
	.st10{font-size:21px;}
	.st11{letter-spacing:1;}
	.st12{font-family:'Lato-Heavy';}
	.st13{font-size:48px;}
	.st14{letter-spacing:3;}
</style>
<title>back</title>
<rect x="-12" y="-8.6" class="st0" width="734.3" height="803.7"/>
<path class="st1" d="M209.2,555.2h15.4c8.7,0,15.8,7.1,15.8,15.8v41c0,8.7-7.1,15.8-15.8,15.8h-15.4c-8.7,0-15.8-7.1-15.8-15.8v-41
	C193.4,562.3,200.5,555.2,209.2,555.2z"/>
<circle class="st2" cx="216.9" cy="563.3" r="1.9"/>
<line class="st1" x1="193" y1="571.5" x2="241" y2="571.5"/>
<path class="st1" d="M216.5,556v-10.8c0,0,1.3-5.9-5-5.8c-7.8,0.1-13.4,1.6-12-14.2"/>
<path class="st1" d="M610.2,119.3h28.4c11,0,20,9,20,20v73.6c0,11-9,20-20,20h-28.4c-11,0-20-9-20-20v-73.6
	C590.2,128.2,599.1,119.3,610.2,119.3z"/>
<circle class="st0" cx="625.9" cy="224.4" r="4.2"/>
<ellipse transform="matrix(0.9139 -0.4059 0.4059 0.9139 1.4186 257.4563)" class="st3" cx="607.6" cy="125.4" rx="2.1" ry="2.1"/>
<rect x="600.7" y="174.3" class="st0" width="47.3" height="9.8"/>
<rect x="600.7" y="190.3" class="st0" width="47.3" height="9.8"/>
<line class="st1" x1="590" y1="215.5" x2="659" y2="215.5"/>
<line class="st1" x1="613" y1="126.5" x2="648" y2="126.5"/>
<line class="st1" x1="592" y1="132.5" x2="657" y2="132.5"/>
<path class="st4" d="M84.9,459.9l2.4,4.8c0.1,0.1,0,0.3-0.1,0.4c0,0-0.1,0-0.1,0h-4.8c-0.2,0-0.3-0.1-0.3-0.3c0,0,0-0.1,0-0.1
	l2.4-4.8c0.1-0.1,0.2-0.2,0.4-0.1C84.9,459.8,84.9,459.8,84.9,459.9z"/>
<polygon class="st0" points="118.4,226 71,226 62.7,233.6 62.7,226 58,226 58,182.5 118.4,182.5 "/>
<line class="st1" x1="70" y1="196.5" x2="106" y2="196.5"/>
<line class="st1" x1="70" y1="203.5" x2="106" y2="203.5"/>
<line class="st1" x1="70" y1="210.5" x2="106" y2="210.5"/>
<circle class="st3" cx="642.5" cy="433.7" r="14.9"/>
<circle class="st5" cx="642.5" cy="433.7" r="18.5"/>
<circle class="st1" cx="213" cy="180" r="12"/>
<line class="st1" x1="221.7" y1="188" x2="236.8" y2="200.6"/>
<path class="st6" d="M634.5,433.9l5.6-2.9v0.8l-4.7,2.4l0,0l4.7,2.4v0.8l-5.6-2.9V433.9L634.5,433.9z"/>
<path class="st6" d="M640.9,437.9l3.4-8.7h0.8l-3.4,8.7H640.9L640.9,437.9z"/>
<path class="st6" d="M651.5,434.5l-5.6,2.9v-0.8l4.8-2.4l0,0l-4.8-2.4V431l5.6,2.9V434.5L651.5,434.5z"/>
<circle class="st0" cx="449.1" cy="136" r="20.7"/>
<circle class="st7" cx="449.1" cy="136" r="26.8"/>
<rect x="74.8" y="478" class="st0" width="19.7" height="91.4"/>
<rect x="74.8" y="563.1" class="st1" width="19.7" height="6.3"/>
<polyline class="st1" points="74.8,477.6 84.7,457.7 94.5,477.6 "/>
<line class="st1" x1="88.5" y1="478" x2="88.5" y2="564"/>
<line class="st1" x1="81.5" y1="478" x2="81.5" y2="564"/>
<polyline class="st1" points="590.2,580.4 590.2,584.4 586.2,584.4 "/>
<line class="st8" x1="577.7" y1="584.4" x2="548.1" y2="584.4"/>
<polyline class="st1" points="543.8,584.4 539.8,584.4 539.8,580.4 "/>
<line class="st8" x1="539.8" y1="571.9" x2="539.8" y2="542.3"/>
<polyline class="st1" points="539.8,538.1 539.8,534.1 543.8,534.1 "/>
<line class="st8" x1="552.3" y1="534.1" x2="582" y2="534.1"/>
<polyline class="st1" points="586.2,534.1 590.2,534.1 590.2,538.1 "/>
<line class="st8" x1="590.2" y1="546.5" x2="590.2" y2="576.2"/>
<rect x="555.3" y="546.7" class="st1" width="50.3" height="50.3"/>
<path class="st1" d="M537,556.8c-3.2,0.3-47.5,0.2-47.5,0.2v19"/>
<rect x="453.7" y="576.7" class="st0" width="77.9" height="13.7"/>
<rect x="453.7" y="595" class="st0" width="77.9" height="13.7"/>
<rect x="453.7" y="613.4" class="st0" width="77.9" height="13.7"/>
<polygon class="st4" points="449.1,146.6 440.9,133.9 443.4,132.3 448.4,140.1 454.6,124.6 457.4,125.7 "/>
<polyline class="st1" points="276.9,122.4 255.1,104 276.9,87 "/>
<circle class="st0" cx="276.9" cy="122.4" r="5.3"/>
<circle class="st0" cx="255.1" cy="104" r="5.3"/>
<circle class="st0" cx="276.9" cy="87" r="5.3"/>
<text transform="matrix(1 0 0 1 248.5487 395.08)" class="st4 st9 st10 st11">UX / UI DESIGNER</text>
<g>
	<text transform="matrix(1 0 0 1 157.1294 341.6049)" class="st4 st12 st13 st14">JOANNA LEKKI</text>
</g>
</svg>
